<svg width="61" height="61" viewBox="0 0 61 61" fill="none" xmlns="http://www.w3.org/2000/svg">
<path d="M30.3385 60.1358C24.3663 60.1132 18.5358 58.326 13.5889 55.0013C8.64191 51.6767 4.80209 46.9649 2.55794 41.4656C0.313793 35.9662 -0.233207 29.9278 0.98647 24.1187C2.20615 18.3095 5.13737 12.9921 9.40727 8.84309C13.6772 4.69405 19.0927 1.90088 24.9648 0.818948C30.837 -0.262985 36.9003 0.415218 42.3834 2.76729C47.8665 5.11936 52.5215 9.03895 55.7562 14.0274C58.9909 19.0159 60.6591 24.8477 60.5484 30.7809C60.4239 38.6427 57.18 46.1376 51.5224 51.6351C45.8649 57.1325 38.2515 60.1876 30.3385 60.1358ZM21.5702 24.2616V30.7809H25.5602V49.8447H33.2855V30.6363H38.6459L39.2159 24.2496H33.3704C33.3258 24.1747 33.293 24.0934 33.2734 24.0086C33.2734 22.9361 33.2734 21.8516 33.2734 20.7791C33.2734 18.8149 33.6009 18.4895 35.5534 18.4895H39.1917V11.6569C36.2568 11.8377 33.3461 11.8015 30.5083 12.2594C29.1971 12.415 27.9859 13.0336 27.0954 14.0024C26.2049 14.9713 25.6944 16.2259 25.6572 17.5375C25.4632 19.2005 25.536 20.8996 25.4875 22.5867C25.4875 23.1289 25.4875 23.6712 25.4875 24.2616H21.5702Z" fill="white"/>
</svg>
