<svg width="62" height="62" viewBox="0 0 62 62" fill="none" xmlns="http://www.w3.org/2000/svg">
<path d="M30.5677 61.4593C24.4853 61.4367 18.5469 59.6184 13.5067 56.2352C8.46662 52.852 4.55224 48.0567 2.26074 42.4583C-0.0307608 36.8599 -0.595966 30.7111 0.636963 24.7929C1.86989 18.8746 4.84529 13.454 9.18523 9.21963C13.5252 4.98522 19.0338 2.12807 25.0114 1.01107C30.989 -0.105927 37.1659 0.567646 42.7575 2.94623C48.349 5.32481 53.1029 9.30107 56.4153 14.37C59.7278 19.4388 61.4492 25.3716 61.361 31.4146C61.2599 39.4477 57.9656 47.1149 52.1967 52.7436C46.4278 58.3722 38.6526 61.5053 30.5677 61.4593ZM30.5677 49.1147C33.04 49.1147 35.6483 49.1761 38.1702 49.1147C43.8566 48.9304 47.6764 45.7491 48.0596 40.1357C48.3934 34.3428 48.3934 28.5356 48.0596 22.7427C47.9786 20.5221 47.0488 18.4157 45.4595 16.8524C43.8701 15.2892 41.7408 14.3867 39.5053 14.3288C33.621 14.0708 27.6997 14.0831 21.8031 14.3288C19.7143 14.4022 17.7198 15.2109 16.1755 16.6103C14.6312 18.0098 13.6377 19.9089 13.3723 21.9689C13.0339 24.2538 12.8933 26.5633 12.952 28.872C12.952 32.7535 12.952 36.6473 13.2116 40.5042C13.3402 42.6809 14.2594 44.7374 15.7986 46.2916C17.3377 47.8458 19.3922 48.7922 21.5806 48.955C24.5876 49.1703 27.6042 49.2236 30.6171 49.1147H30.5677Z" fill="white"/>
<path d="M44.9313 40.2246C44.8575 41.7833 44.1661 43.2497 43.008 44.3037C41.85 45.3576 40.3195 45.9137 38.7504 45.8503C33.3853 45.9977 28.0079 46.01 22.68 45.8503C18.7983 45.7398 16.499 43.2708 16.3259 39.2911C16.1941 34.1977 16.1941 29.1001 16.3259 23.9985C16.4372 19.81 18.8972 17.4025 23.1373 17.3042C28.148 17.165 33.1586 17.165 38.1693 17.3042C42.6196 17.4148 44.9683 19.8468 45.1167 24.2442C45.2032 26.7009 45.1167 29.1575 45.1167 31.6141C45.2484 34.4852 45.1865 37.3618 44.9313 40.2246ZM39.7763 31.6264C39.7738 29.8357 39.2362 28.0862 38.2317 26.5996C37.2272 25.113 35.8009 23.9562 34.1339 23.2761C32.4669 22.5959 30.6341 22.423 28.868 22.7793C27.102 23.1355 25.4821 24.0048 24.2139 25.277C22.9458 26.5492 22.0864 28.167 21.7447 29.9251C21.4031 31.6833 21.5946 33.5026 22.295 35.1525C22.9954 36.8024 24.173 38.2084 25.6787 39.1923C27.1843 40.1762 28.9502 40.6937 30.7522 40.6791C33.1588 40.6596 35.4596 39.6935 37.1509 37.9922C38.8422 36.291 39.7862 33.9931 39.7763 31.6018V31.6264ZM42.2487 22.2544C42.2553 21.6994 42.0406 21.1643 41.6515 20.7661C41.2624 20.368 40.7304 20.139 40.1719 20.1293C39.6154 20.1357 39.0833 20.3573 38.6886 20.7472C38.2939 21.1371 38.0677 21.6646 38.0581 22.2175C38.0359 22.5044 38.0735 22.7927 38.1688 23.0644C38.264 23.3361 38.4148 23.5853 38.6115 23.7963C38.8083 24.0074 39.0468 24.1759 39.3121 24.291C39.5774 24.4062 39.8638 24.4656 40.1534 24.4656C40.4429 24.4656 40.7294 24.4062 40.9947 24.291C41.26 24.1759 41.4985 24.0074 41.6953 23.7963C41.892 23.5853 42.0427 23.3361 42.1379 23.0644C42.2332 22.7927 42.2709 22.5044 42.2487 22.2175V22.2544Z" fill="white"/>
<path d="M30.7136 25.7521C31.4901 25.752 32.2588 25.9044 32.9759 26.2004C33.6929 26.4964 34.344 26.9301 34.8919 27.4768C35.4397 28.0235 35.8736 28.6723 36.1685 29.3859C36.4634 30.0996 36.6134 30.8642 36.6102 31.6357C36.6404 32.4317 36.5081 33.2256 36.221 33.9694C35.9339 34.7132 35.4981 35.3915 34.9399 35.9633C34.3817 36.5351 33.7127 36.9886 32.9732 37.2964C32.2337 37.6042 31.4391 37.7599 30.6374 37.754C29.8357 37.7482 29.0435 37.581 28.3086 37.2626C27.5738 36.9441 26.9114 36.481 26.3617 35.9011C25.812 35.3213 25.3862 34.6367 25.11 33.8889C24.8339 33.141 24.7132 32.3452 24.7552 31.5497C24.7584 30.7789 24.9155 30.0163 25.2176 29.3063C25.5197 28.5962 25.9607 27.9529 26.515 27.4136C27.0693 26.8742 27.7259 26.4496 28.4466 26.1644C29.1674 25.8792 29.9379 25.739 30.7136 25.7521Z" fill="white"/>
</svg>
