<svg width="60" height="59" viewBox="0 0 60 59" fill="none" xmlns="http://www.w3.org/2000/svg">
<path d="M27.4675 0.490967H32.5055C32.7544 0.573915 33.0091 0.638284 33.2677 0.683514C39.0656 1.3183 44.5385 3.66767 48.9776 7.42756C53.4168 11.1874 56.6181 16.1847 58.167 21.7726C58.6579 23.5119 58.9162 25.3153 59.2779 27.093V32.0925C59.1294 32.9076 58.9679 33.7226 58.8387 34.5441C56.3584 49.9021 41.167 60.8574 25.7365 58.3993C12.2179 56.2493 2.3744 45.9808 0.856546 32.4519C-0.622558 19.2632 7.77411 6.2157 20.4854 2.10186C22.7525 1.37022 25.1423 1.01723 27.4675 0.490967ZM43.6666 20.2644C43.6279 18.339 42.8463 17.6973 40.9344 18.1786C40.4945 18.2818 40.0627 18.417 39.6427 18.5829C33.0028 21.3169 26.363 24.0616 19.7232 26.817C17.4755 27.7476 15.2019 28.7039 13.0382 29.7436C12.8195 29.8611 12.628 30.0229 12.4762 30.2185C12.2437 30.4945 12.515 31.5021 13.2061 31.823C14.4139 32.3813 16.061 33.1066 16.8296 33.3633C19.1871 34.2297 21.2282 33.774 23.2886 32.3557C26.9056 29.8334 35.2053 24.8211 35.651 24.712C35.4572 25.1548 29.3664 31.4507 26.8991 33.8189C25.0971 35.5517 25.1746 36.3347 27.2156 37.7146C29.8982 39.5244 32.5809 41.3257 35.2635 43.1184C38.1959 45.0437 39.6944 44.402 40.3144 40.9941C40.7407 38.6066 41.1864 36.2256 41.5739 33.8382C42.2715 29.32 42.9626 24.789 43.6666 20.2644Z" fill="white"/>
</svg>
