<svg width="62" height="62" viewBox="0 0 62 62" fill="none" xmlns="http://www.w3.org/2000/svg">
<path d="M29.4159 0.48584H33.2512C33.9641 0.57084 34.677 0.648776 35.4397 0.747943C41.4906 1.51241 47.158 4.10916 51.6719 8.18546C59.3495 15.1342 62.7571 23.8256 61.8589 34.1106C61.3474 40.0585 59.008 45.7064 55.1578 50.289C50.5428 56.0288 43.9676 59.8853 36.6801 61.1266C35.5467 61.332 34.3918 61.4453 33.2512 61.6012H29.4159C28.7031 61.5091 27.9118 61.4312 27.1633 61.3249C20.7271 60.4277 14.7415 57.5307 10.0628 53.0485C5.38412 48.5662 2.25205 42.7284 1.11482 36.3702C0.908087 35.2369 0.794039 34.0894 0.637207 32.9489V29.131C0.687108 28.7414 0.737018 28.3518 0.779791 27.9552C1.46386 21.3273 4.30727 15.1025 8.87777 10.2274C13.4483 5.3523 19.4958 2.09345 26.1011 0.946276C27.1989 0.762109 28.311 0.634591 29.4159 0.48584ZM28.5463 27.0343C27.3274 26.8273 26.0806 26.8441 24.8678 27.0839C22.8431 27.4906 20.9769 28.4622 19.4878 29.8847C17.9987 31.3072 16.9483 33.1218 16.4595 35.1161C15.9708 37.1104 16.064 39.2017 16.7283 41.1453C17.3925 43.0888 18.6002 44.804 20.2101 46.0902C21.8199 47.3763 23.7652 48.1802 25.8182 48.4075C27.8712 48.6348 29.9468 48.2763 31.8021 47.3738C33.6574 46.4714 35.2156 45.0624 36.2941 43.3118C37.3726 41.5613 37.9269 39.5416 37.892 37.4894C37.892 33.5723 37.892 29.6481 37.8492 25.731V25.0226C40.3856 26.9495 43.489 27.9948 46.6817 27.9977V22.3947C41.0999 21.6368 38.8401 19.3914 37.7922 13.6468H32.132V14.4401C32.132 22.0193 32.132 29.5962 32.132 37.1706C32.132 37.5531 32.132 37.9285 32.075 38.304C31.9647 39.2727 31.58 40.1905 30.9654 40.9505C30.3509 41.7105 29.5319 42.2816 28.6036 42.5973C27.6753 42.9131 26.6758 42.9605 25.7215 42.7341C24.7671 42.5076 23.8971 42.0166 23.2125 41.3182C22.5279 40.6198 22.0569 39.7426 21.8543 38.7887C21.6517 37.8348 21.7258 36.8433 22.0679 35.9295C22.41 35.0158 23.0062 34.2173 23.787 33.627C24.5679 33.0367 25.5014 32.6787 26.4789 32.5948C27.1716 32.5872 27.8641 32.6179 28.5534 32.6869L28.5463 27.0343Z" fill="white"/>
</svg>
