<svg width="59" height="64" viewBox="0 0 59 64" fill="none" xmlns="http://www.w3.org/2000/svg">
<path d="M14.0738 63.6063V62.0073C14.0738 58.8617 14.0738 55.7147 14.0738 52.5664C14.088 52.4554 14.0629 52.343 14.0029 52.2483C13.9428 52.1537 13.8515 52.0827 13.7446 52.0476C12.8872 51.7225 12.0378 51.3752 11.1702 51.0764C8.18526 50.0467 5.96436 48.0802 4.23519 45.5141C2.99369 43.6748 2.20327 41.6376 1.6201 39.5096C1.14752 37.7746 0.800533 36.0081 0.581791 34.2239C0.294363 31.8353 0.200591 29.4276 0.301384 27.0241C0.374534 25.1155 0.537772 23.2163 0.791086 21.3265C1.02331 19.3485 1.35699 17.3834 1.7908 15.4392C2.39324 12.8645 3.6179 10.4744 5.35886 8.47564C6.7415 6.90687 8.38479 5.58544 10.2172 4.56888C12.7098 3.18885 15.3989 2.1929 18.1925 1.61509C19.9808 1.22606 21.7902 0.940233 23.6117 0.75904C25.86 0.511515 28.1241 0.435243 30.3841 0.530893C31.9243 0.605595 33.4665 0.688374 35.0006 0.845855C37.7803 1.09651 40.5339 1.57941 43.232 2.28944C45.5707 2.90517 47.7996 3.87633 49.8398 5.16853C52.5755 6.90869 54.6954 9.45489 55.9031 12.451C56.575 14.174 57.0679 15.9607 57.3742 17.7832C57.618 19.0955 57.8334 20.42 57.9655 21.7485C58.1179 23.2789 58.1971 24.8214 58.2459 26.3599C58.2923 28.3468 58.236 30.3348 58.0772 32.3159C57.874 35.3182 57.3823 38.2699 56.3785 41.1208C55.7689 42.8611 55.0619 44.5531 54.0175 46.0996C52.4508 48.4053 50.3336 50.0568 47.8079 51.2117C45.7652 52.1174 43.6088 52.7449 41.3971 53.0772C39.5451 53.3718 37.6772 53.5578 35.8032 53.6345C33.6453 53.7354 31.4881 53.8317 29.3315 53.9232C28.4111 53.9595 27.4906 53.9757 26.5702 53.9858C26.4412 53.9844 26.3136 54.0116 26.1965 54.0654C26.0795 54.1192 25.976 54.1982 25.8935 54.2967C23.8067 56.5903 21.5655 58.7385 19.3466 60.8968C18.4729 61.7509 17.5911 62.5948 16.7173 63.4468C16.6691 63.4991 16.6099 63.5404 16.5439 63.5676C16.4779 63.5948 16.4067 63.6073 16.3353 63.6043C15.677 63.5942 15.0166 63.6043 14.3562 63.6043L14.0738 63.6063ZM30.951 36.5074C30.8149 36.501 30.6793 36.4875 30.5446 36.467C30.374 36.436 30.2067 36.3894 30.0447 36.3277C27.45 35.2899 25.1681 33.7999 23.3719 31.6517C22.2358 30.3404 21.3614 28.8261 20.7954 27.1897C20.4276 26.0793 20.6471 25.096 21.5025 24.2844C21.9353 23.8806 22.4088 23.503 22.87 23.1214C23.9449 22.231 24.1542 21.2579 23.5426 20.0182C22.3971 17.6791 20.8438 15.5601 18.9545 13.7593C18.3449 13.1839 17.6581 12.7741 16.8007 12.871C16.2491 12.9425 15.709 13.0836 15.1934 13.2909C13.6349 13.8966 12.4218 14.8859 11.7391 16.4487C11.4483 17.1024 11.3054 17.8116 11.3205 18.5262C11.3512 19.1952 11.5098 19.8523 11.7879 20.4624C12.4645 22.0191 13.0375 23.6221 13.7914 25.1404C15.2225 27.9856 16.9965 30.6474 19.0744 33.067C21.5414 35.9697 24.3923 38.5274 27.5495 40.6705C30.2658 42.5073 33.1585 44.0722 36.1852 45.3425C37.2134 45.7786 38.2822 45.9704 39.3591 45.5948C41.5942 44.8135 43.2462 43.374 44.1707 41.1874C44.5527 40.2829 44.5771 39.3703 43.9675 38.5627C43.6607 38.1709 43.3049 37.8195 42.9089 37.5169C41.9173 36.7469 40.9081 35.9986 39.8813 35.2717C39.2078 34.7758 38.507 34.3175 37.7823 33.8988C37.0325 33.454 36.1403 33.3096 35.2871 33.495C34.3036 33.7151 33.6616 34.3692 33.1089 35.1627C32.9073 35.4517 32.6719 35.716 32.4079 35.9501C32.0081 36.3082 31.4892 36.5066 30.951 36.5074ZM45.8064 24.9426C45.8054 23.7867 45.669 22.6348 45.4 21.5103C44.5872 18.191 42.85 15.427 40.1414 13.3212C36.427 10.43 32.2169 9.50129 27.6105 10.4522C27.4255 10.4823 27.2488 10.55 27.0913 10.6511C26.9339 10.7522 26.7992 10.8845 26.6956 11.0397C26.592 11.195 26.5218 11.3698 26.4894 11.5532C26.457 11.7367 26.463 11.9248 26.5072 12.1058C26.5492 12.285 26.6269 12.454 26.7357 12.6028C26.8446 12.7516 26.9824 12.8773 27.1409 12.9723C27.2995 13.0674 27.4755 13.1299 27.6588 13.1562C27.8421 13.1825 28.0288 13.172 28.2079 13.1254C29.8233 12.7619 31.497 12.7358 33.1231 13.0487C35.9987 13.5607 38.5814 15.1129 40.373 17.4057C42.7687 20.42 43.5144 23.8422 42.7464 27.6016C42.7057 27.8055 42.7057 28.0154 42.7464 28.2194C42.8111 28.529 42.9825 28.8065 43.231 29.004C43.4795 29.2015 43.7895 29.3068 44.1077 29.3016C44.429 29.2937 44.7378 29.1765 44.9826 28.9696C45.2274 28.7628 45.3934 28.4787 45.4528 28.1649C45.6803 27.1055 45.7988 26.0258 45.8064 24.9426ZM41.7304 24.9426C41.6593 24.3369 41.6328 23.6625 41.4967 23.0104C40.7185 19.247 38.5382 16.5839 34.9945 15.0414C33.1459 14.253 31.1077 14.0111 29.1243 14.3449C28.9378 14.3613 28.7567 14.4152 28.5918 14.5033C28.4269 14.5913 28.2817 14.7117 28.165 14.8571C28.0483 15.0025 27.9625 15.17 27.9128 15.3493C27.8631 15.5286 27.8506 15.7161 27.8759 15.9003C27.9012 16.0846 27.9639 16.2619 28.0601 16.4214C28.1564 16.5809 28.2842 16.7194 28.4358 16.8284C28.5875 16.9374 28.7598 17.0147 28.9424 17.0556C29.125 17.0966 29.3141 17.1002 29.4982 17.0665C30.1558 16.9622 30.8233 16.9344 31.4874 16.9837C33.1406 17.0943 34.714 17.7315 35.9739 18.8008C38.2984 20.7814 39.2412 23.3011 38.8064 26.3175C38.7749 26.5003 38.7804 26.6875 38.8226 26.8681C38.8649 27.0487 38.9429 27.2192 39.0523 27.3694C39.1617 27.5197 39.3002 27.6467 39.4597 27.7431C39.6191 27.8395 39.7963 27.9032 39.9809 27.9307C40.1625 27.9561 40.3474 27.9452 40.5248 27.8986C40.7021 27.852 40.8683 27.7706 41.0135 27.6592C41.1587 27.5479 41.2801 27.4088 41.3704 27.2501C41.4607 27.0915 41.5181 26.9165 41.5394 26.7354C41.6186 26.158 41.6654 25.5866 41.7304 24.9486V24.9426ZM37.5832 25.0314C37.5121 24.563 37.4674 24.0885 37.3658 23.6282C37.0098 22.1175 36.1494 20.7712 34.9247 19.8087C33.7 18.8463 32.1833 18.3245 30.6218 18.3283C30.2969 18.3343 29.9845 18.4537 29.7393 18.6656C29.4941 18.8775 29.3317 19.1683 29.2807 19.4872C29.2279 19.8173 29.2997 20.1551 29.4824 20.4358C29.6651 20.7164 29.9457 20.92 30.2703 21.0075C30.4968 21.0515 30.7264 21.0771 30.9571 21.0843C31.5614 21.1259 32.1488 21.3012 32.6761 21.5974C33.2035 21.8937 33.6575 22.3033 34.005 22.7964C34.5242 23.5226 34.8001 24.3929 34.7934 25.2838C34.8145 25.6056 34.9502 25.9095 35.1762 26.141C35.4021 26.3726 35.7037 26.5167 36.0268 26.5477C36.2324 26.5648 36.4393 26.5378 36.6335 26.4685C36.8277 26.3992 37.0046 26.2892 37.1523 26.1459C37.2999 26.0027 37.4148 25.8296 37.4891 25.6383C37.5635 25.447 37.5956 25.2421 37.5832 25.0374V25.0314Z" fill="white"/>
</svg>
