<svg width="71" height="50" viewBox="0 0 71 50" fill="none" xmlns="http://www.w3.org/2000/svg">
<path d="M57.0978 1.6163C58.7979 1.70703 60.49 1.90961 62.1631 2.2227C66.2316 2.9571 68.8015 5.66561 69.5677 9.88335C70.553 15.7087 70.9144 21.6214 70.6458 27.5224C70.5102 31.6458 70.1034 35.7692 69.7033 39.8791C69.4117 42.9178 68.1844 45.505 65.4857 47.2231C63.8508 48.1511 62.0166 48.6777 60.1357 48.7593C52.891 49.4551 45.6133 49.7543 38.3355 49.6554C31.0326 49.615 23.7365 49.3994 16.4337 49.1635C14.053 49.0578 11.6804 48.8171 9.32744 48.4426C7.43321 48.2152 5.6689 47.3682 4.31239 46.0349C2.95588 44.7017 2.08422 42.958 1.83466 41.0784C1.30577 37.9589 1.01421 34.799 0.790443 31.6458C0.452475 26.5489 0.504597 21.4338 0.946387 16.3447C1.11737 13.9599 1.43899 11.588 1.90928 9.24327C2.79078 5.06595 5.73361 2.55284 9.97836 2.0273C16.7998 1.17837 23.6687 1.0975 30.5308 0.982962C32.1853 0.956012 49.8967 1.29289 57.0978 1.6163ZM28.6865 35.7759L46.9132 25.3394L28.6865 14.8894V35.7759Z" fill="white"/>
</svg>
