<svg width="263" height="225" viewBox="0 0 263 225" fill="none" xmlns="http://www.w3.org/2000/svg">
<path d="M131.589 223.05C202.165 223.05 259.378 218.241 259.378 212.309C259.378 206.377 202.165 201.568 131.589 201.568C61.0136 201.568 3.80078 206.377 3.80078 212.309C3.80078 218.241 61.0136 223.05 131.589 223.05Z" fill="#848AC3"/>
<path d="M245.883 224.289H17.2958C8.20745 224.289 0.771484 216.853 0.771484 207.764V17.4589C0.771484 8.37053 8.20745 0.93457 17.2958 0.93457H246.021C255.109 0.93457 262.545 8.37053 262.545 17.4589V207.764C262.407 216.853 254.971 224.289 245.883 224.289Z" fill="#070507"/>
<mask id="mask0_346_301" style="mask-type:luminance" maskUnits="userSpaceOnUse" x="24" y="18" width="236" height="207">
<path d="M259.516 18.9736H24.4565V224.564H259.516V18.9736Z" fill="white"/>
</mask>
<g mask="url(#mask0_346_301)">
<path opacity="0.61" d="M137.786 381.958C201.898 381.958 253.87 329.986 253.87 265.875C253.87 201.763 201.898 149.791 137.786 149.791C73.675 149.791 21.7026 201.763 21.7026 265.875C21.7026 329.986 73.675 381.958 137.786 381.958Z" fill="url(#paint0_radial_346_301)"/>
</g>
<path d="M223.575 192.066H42.3574C33.269 192.066 25.833 184.63 25.833 175.542V54.6384C25.833 45.55 33.269 38.114 42.3574 38.114H223.437C232.525 38.114 239.961 45.55 239.961 54.6384V175.542C240.099 184.63 232.663 192.066 223.575 192.066Z" fill="white"/>
<path d="M47.233 57.2707V59.2726H50.5165V60.4377H46.0149V53.0234H50.4635V54.1885H47.233V56.1162H50.1987V57.2707H47.233ZM53.8241 57.7368L56.239 60.4377H54.8727L52.7013 57.991V60.4377H51.5574V55.1418H52.7013V57.4826L54.7562 55.1418H56.1543L53.8241 57.7368ZM59.0841 60.5754C58.3109 60.5754 57.6436 60.3106 57.1034 59.7704C56.5632 59.2303 56.2879 58.5736 56.2879 57.7898C56.2879 57.0059 56.5632 56.3492 57.1034 55.8091C57.6436 55.2689 58.3109 55.0041 59.0841 55.0041C59.8679 55.0041 60.5246 55.2689 61.0648 55.8091C61.605 56.3492 61.8804 57.0059 61.8804 57.7898C61.8804 58.5736 61.605 59.2303 61.0648 59.7704C60.5246 60.3106 59.8679 60.5754 59.0841 60.5754ZM57.9084 58.9866C58.2262 59.3044 58.6181 59.4633 59.0841 59.4633C59.5502 59.4633 59.9421 59.3044 60.2598 58.9866C60.5776 58.6689 60.7365 58.2664 60.7365 57.7898C60.7365 57.3131 60.5776 56.9106 60.2598 56.5929C59.9421 56.2751 59.5502 56.1162 59.0841 56.1162C58.6181 56.1162 58.2262 56.2751 57.9084 56.5929C57.5907 56.9106 57.4318 57.3131 57.4318 57.7898C57.4318 58.2664 57.5907 58.6689 57.9084 58.9866ZM66.4843 57.2496V55.1418H67.6282V60.4377H66.4843V58.3299H64.0587V60.4377H62.9148V55.1418H64.0587V57.2496H66.4843ZM71.4552 60.5754C70.682 60.5754 70.0147 60.3106 69.4745 59.7704C68.9343 59.2303 68.6589 58.5736 68.6589 57.7898C68.6589 57.0059 68.9343 56.3492 69.4745 55.8091C70.0147 55.2689 70.682 55.0041 71.4552 55.0041C72.239 55.0041 72.8957 55.2689 73.4359 55.8091C73.9761 56.3492 74.2515 57.0059 74.2515 57.7898C74.2515 58.5736 73.9761 59.2303 73.4359 59.7704C72.8957 60.3106 72.239 60.5754 71.4552 60.5754ZM70.2795 58.9866C70.5973 59.3044 70.9892 59.4633 71.4552 59.4633C71.9213 59.4633 72.3132 59.3044 72.6309 58.9866C72.9487 58.6689 73.1076 58.2664 73.1076 57.7898C73.1076 57.3131 72.9487 56.9106 72.6309 56.5929C72.3132 56.2751 71.9213 56.1162 71.4552 56.1162C70.9892 56.1162 70.5973 56.2751 70.2795 56.5929C69.9618 56.9106 69.8029 57.3131 69.8029 57.7898C69.8029 58.2664 69.9618 58.6689 70.2795 58.9866ZM79.5227 55.1418H80.6878V60.4377H79.5756V56.953L78.0504 59.3785H77.9127L76.398 56.9636V60.4377H75.2859V55.1418H76.451L77.9868 57.5885L79.5227 55.1418ZM83.0897 54.1355C82.8037 54.4215 82.3588 54.4215 82.0623 54.1355C81.7763 53.8389 81.7763 53.3941 82.0623 53.1081C82.3482 52.8115 82.8143 52.8115 83.1003 53.1081C83.3863 53.3941 83.3863 53.8389 83.0897 54.1355ZM83.1532 60.4377H82.0093V55.1418H83.1532V60.4377ZM86.2185 55.1418H88.5806V60.4377H87.4578V58.6583H86.8223L85.4771 60.4377H84.1319L85.5618 58.5524C84.831 58.3088 84.3438 57.6521 84.3438 56.9C84.3438 56.4128 84.5132 55.9997 84.8628 55.6608C85.2123 55.3112 85.6678 55.1418 86.2185 55.1418ZM86.2821 57.6732H87.4578V56.1798H86.2821C85.816 56.1798 85.4665 56.4658 85.4665 56.9318C85.4665 57.3873 85.816 57.6732 86.2821 57.6732ZM95.7799 57.5673V55.1418H96.9238V60.4377H95.7799V58.6477C95.3562 58.8066 94.9113 58.8807 94.4453 58.8807C93.1319 58.8807 92.3163 58.224 92.3163 56.9636V55.1418H93.4602V56.8577C93.4602 57.4932 93.8415 57.8109 94.5936 57.8109C95.0384 57.8109 95.4303 57.7262 95.7799 57.5673ZM102.454 55.8938V55.1418H103.598V60.4377H102.454V59.6751C102.019 60.2789 101.405 60.5754 100.6 60.5754C99.8693 60.5754 99.2549 60.3106 98.7359 59.7704C98.2169 59.2303 97.9627 58.563 97.9627 57.7898C97.9627 57.0059 98.2169 56.3492 98.7359 55.8091C99.2549 55.2689 99.8693 55.0041 100.6 55.0041C101.405 55.0041 102.019 55.3006 102.454 55.8938ZM99.5833 59.0078C99.9011 59.3256 100.304 59.4845 100.78 59.4845C101.257 59.4845 101.659 59.3256 101.977 59.0078C102.295 58.6795 102.454 58.277 102.454 57.7898C102.454 57.3025 102.295 56.9 101.977 56.5823C101.659 56.2539 101.257 56.095 100.78 56.095C100.304 56.095 99.9011 56.2539 99.5833 56.5823C99.2655 56.9 99.1067 57.3025 99.1067 57.7898C99.1067 58.277 99.2655 58.6795 99.5833 59.0078ZM107.431 60.5754C106.636 60.5754 105.969 60.3106 105.429 59.7704C104.899 59.2303 104.634 58.5736 104.634 57.7898C104.634 56.9954 104.899 56.3386 105.429 55.8091C105.969 55.2689 106.636 55.0041 107.431 55.0041C108.458 55.0041 109.369 55.5337 109.793 56.3704L108.808 56.9424C108.564 56.434 108.056 56.1268 107.42 56.1268C106.954 56.1268 106.562 56.2857 106.244 56.6034C105.937 56.9212 105.778 57.3131 105.778 57.7898C105.778 58.2664 105.937 58.6583 106.244 58.9761C106.562 59.2938 106.954 59.4527 107.42 59.4527C108.045 59.4527 108.575 59.1349 108.829 58.6371L109.814 59.1985C109.358 60.0458 108.458 60.5754 107.431 60.5754ZM112.679 58.9972L114.034 55.1418H115.252L113.219 60.6072C112.721 61.9524 111.81 62.6303 110.634 62.5561V61.4863C111.355 61.5287 111.778 61.2004 112.043 60.4695L112.075 60.3954L109.851 55.1418H111.069L112.679 58.9972Z" fill="#010101"/>
<path d="M68.423 114.481L70.4293 113.772H71.5197V121.405H70.2658V115.113L68.7283 115.549L68.423 114.481ZM77.9756 120.467C77.4522 121.186 76.7216 121.546 75.773 121.546C74.8243 121.546 74.0938 121.186 73.5595 120.467C73.0361 119.747 72.7744 118.788 72.7744 117.588C72.7744 116.389 73.0361 115.429 73.5595 114.71C74.0938 113.99 74.8243 113.63 75.773 113.63C76.7216 113.63 77.4522 113.99 77.9756 114.71C78.5099 115.429 78.7715 116.389 78.7715 117.588C78.7715 118.788 78.5099 119.747 77.9756 120.467ZM75.773 120.325C76.907 120.325 77.5176 119.344 77.5176 117.588C77.5176 115.833 76.907 114.851 75.773 114.851C74.6499 114.851 74.0284 115.833 74.0284 117.588C74.0284 119.344 74.6499 120.325 75.773 120.325ZM87.417 115.953V120.292H88.1476V122.866H86.9918V121.405H83.2518V122.866H82.0959V120.292H82.7611C83.0991 119.823 83.2627 119.158 83.2627 118.319V115.953H87.417ZM84.0586 120.292H86.2612V117.032H84.4185V118.319C84.4185 119.093 84.2985 119.758 84.0586 120.292ZM92.7788 118.122V115.953H93.9564V121.405H92.7788V119.235H90.2818V121.405H89.1042V115.953H90.2818V118.122H92.7788ZM96.435 114.917C96.1406 115.211 95.6826 115.211 95.3773 114.917C95.0829 114.611 95.0829 114.153 95.3773 113.859C95.6717 113.554 96.1515 113.554 96.4459 113.859C96.7403 114.153 96.7403 114.611 96.435 114.917ZM96.5004 121.405H95.3228V115.953H96.5004V121.405ZM101.64 118.602C102.175 118.853 102.447 119.267 102.447 119.856C102.447 120.772 101.804 121.405 100.659 121.405H97.8677V115.953H100.441C101.564 115.953 102.207 116.574 102.207 117.457C102.207 117.97 102.022 118.351 101.64 118.602ZM100.354 116.956H98.9908V118.166H100.354C100.834 118.166 101.073 117.959 101.073 117.555C101.073 117.152 100.834 116.956 100.354 116.956ZM98.9908 120.38H100.55C101.041 120.38 101.292 120.161 101.292 119.736C101.292 119.355 101.019 119.137 100.55 119.137H98.9908V120.38Z" fill="#010101"/>
<path d="M64.5529 132.662L66.5592 131.953H67.6496V139.586H66.3956V133.295L64.8582 133.731L64.5529 132.662ZM70.5072 134.832H71.4667C72.1973 134.832 72.8079 135.05 73.3095 135.486C73.811 135.912 74.0618 136.511 74.0618 137.275C74.0618 138.038 73.8001 138.638 73.2877 139.074C72.7752 139.51 72.1427 139.728 71.3904 139.728C70.18 139.728 69.1878 139.15 68.7953 138.092L69.8747 137.471C70.0819 138.158 70.5835 138.507 71.3904 138.507C72.2518 138.507 72.8079 138.027 72.8079 137.275C72.8079 136.522 72.2518 136.053 71.4122 136.053H69.1878L69.4822 131.953H73.7347V133.131H70.638L70.5072 134.832ZM77.8228 134.134H81.4756V135.268H79.0004V139.586H77.8228V134.134ZM84.6342 139.728C83.8382 139.728 83.1512 139.455 82.5951 138.899C82.039 138.343 81.7555 137.667 81.7555 136.86C81.7555 136.053 82.039 135.377 82.5951 134.821C83.1512 134.265 83.8382 133.992 84.6342 133.992C85.441 133.992 86.1171 134.265 86.6732 134.821C87.2293 135.377 87.5128 136.053 87.5128 136.86C87.5128 137.667 87.2293 138.343 86.6732 138.899C86.1171 139.455 85.441 139.728 84.6342 139.728ZM83.4238 138.092C83.7509 138.419 84.1544 138.583 84.6342 138.583C85.1139 138.583 85.5174 138.419 85.8445 138.092C86.1716 137.765 86.3352 137.351 86.3352 136.86C86.3352 136.37 86.1716 135.955 85.8445 135.628C85.5174 135.301 85.1139 135.137 84.6342 135.137C84.1544 135.137 83.7509 135.301 83.4238 135.628C83.0967 135.955 82.9332 136.37 82.9332 136.86C82.9332 137.351 83.0967 137.765 83.4238 138.092ZM93.1623 134.134V138.474H93.8929V141.047H92.7371V139.586H88.9971V141.047H87.8413V138.474H88.5064C88.8444 138.005 89.008 137.34 89.008 136.5V134.134H93.1623ZM89.804 138.474H92.0065V135.214H90.1638V136.5C90.1638 137.275 90.0438 137.94 89.804 138.474ZM96.0053 137.591L98.7967 134.134H99.7017V139.586H98.5459V136.119L95.7545 139.586H94.8495V134.134H96.0053V137.591ZM104.743 136.304V134.134H105.92V139.586H104.743V137.416H102.246V139.586H101.068V134.134H102.246V136.304H104.743Z" fill="#010101"/>
<path d="M150.052 97.8444H154.948V104.592H154.052V98.6926H150.948V104.592H150.052V97.8444ZM156.733 98.895C156.415 98.895 156.165 98.6444 156.165 98.3359C156.165 98.0275 156.415 97.7672 156.733 97.7672C157.042 97.7672 157.293 98.0275 157.293 98.3359C157.293 98.6444 157.042 98.895 156.733 98.895ZM157.148 104.592H156.309V99.7722H157.148V104.592ZM162.572 99.7722V103.792H163.237V105.883H162.408V104.592H158.794V105.883H157.965V103.792H158.553C158.861 103.368 159.015 102.77 159.015 102.008V99.7722H162.572ZM159.507 103.792H161.743V100.553H159.844V102.008C159.844 102.731 159.729 103.319 159.507 103.792ZM163.413 99.7722H167.539V100.582H165.9V104.592H165.061V100.582H163.413V99.7722ZM170.934 99.6469C171.609 99.6469 172.187 99.8975 172.659 100.389C173.132 100.881 173.373 101.478 173.373 102.182C173.373 102.886 173.132 103.493 172.659 103.985C172.187 104.476 171.609 104.717 170.934 104.717C170.134 104.717 169.527 104.399 169.112 103.763V106.52H168.274V99.7722H169.112V100.601C169.527 99.965 170.134 99.6469 170.934 99.6469ZM170.828 103.907C171.31 103.907 171.715 103.744 172.043 103.416C172.37 103.078 172.534 102.674 172.534 102.182C172.534 101.69 172.37 101.286 172.043 100.958C171.715 100.62 171.31 100.457 170.828 100.457C170.336 100.457 169.932 100.62 169.604 100.958C169.276 101.286 169.112 101.69 169.112 102.182C169.112 102.674 169.276 103.078 169.604 103.416C169.932 103.744 170.336 103.907 170.828 103.907ZM175.202 103.156L177.872 99.7722H178.547V104.592H177.718V101.208L175.048 104.592H174.373V99.7722H175.202V103.156ZM183.747 99.7722H184.643V104.592H183.824V101.093L182.291 103.56H182.185L180.653 101.093V104.592H179.824V99.7722H180.72L182.234 102.211L183.747 99.7722ZM187.62 102.105L190.001 104.592H188.96L186.762 102.307V104.592H185.924V99.7722H186.762V101.902L188.844 99.7722H189.924L187.62 102.105ZM194.329 100.601V99.7722H195.168V104.592H194.329V103.763C193.915 104.399 193.307 104.717 192.507 104.717C191.832 104.717 191.254 104.476 190.782 103.985C190.309 103.493 190.069 102.886 190.069 102.182C190.069 101.478 190.309 100.881 190.782 100.389C191.254 99.8975 191.832 99.6469 192.507 99.6469C193.307 99.6469 193.915 99.965 194.329 100.601ZM192.613 103.907C193.105 103.907 193.51 103.744 193.837 103.416C194.165 103.078 194.329 102.674 194.329 102.182C194.329 101.69 194.165 101.286 193.837 100.958C193.51 100.62 193.105 100.457 192.613 100.457C192.131 100.457 191.726 100.62 191.399 100.958C191.071 101.286 190.907 101.69 190.907 102.182C190.907 102.674 191.071 103.078 191.399 103.416C191.726 103.744 192.131 103.907 192.613 103.907Z" fill="#010101"/>
<path d="M149.695 120.898C149.695 119.925 150.032 119.096 150.707 118.421C151.382 117.737 152.211 117.399 153.184 117.399C154.158 117.399 154.987 117.737 155.662 118.421C156.346 119.096 156.683 119.925 156.683 120.898C156.683 121.872 156.346 122.691 155.662 123.376C154.987 124.06 154.158 124.398 153.184 124.398C152.211 124.398 151.382 124.06 150.707 123.376C150.032 122.691 149.695 121.872 149.695 120.898ZM155.787 120.898C155.787 120.156 155.536 119.53 155.035 119.028C154.543 118.518 153.927 118.267 153.184 118.267C152.442 118.267 151.825 118.518 151.324 119.028C150.832 119.53 150.582 120.156 150.582 120.898C150.582 121.641 150.832 122.258 151.324 122.769C151.825 123.27 152.442 123.52 153.184 123.52C153.927 123.52 154.543 123.27 155.035 122.769C155.536 122.258 155.787 121.641 155.787 120.898ZM159.862 124.398C159.149 124.398 158.561 124.166 158.098 123.694C157.636 123.222 157.404 122.624 157.404 121.882C157.404 121.062 157.52 120.426 157.761 119.983C158.002 119.539 158.503 119.135 159.245 118.778C159.38 118.71 159.564 118.633 159.795 118.527L160.315 118.296C160.682 118.113 161.096 117.804 161.135 117.371L161.81 117.756C161.771 117.959 161.713 118.132 161.588 118.296C161.472 118.45 161.424 118.547 161.202 118.691C161 118.816 160.971 118.855 160.691 118.98C160.556 119.048 160.46 119.086 160.412 119.115L160.094 119.25L159.785 119.375C158.908 119.751 158.571 120.089 158.388 120.677C158.802 120.166 159.467 119.925 160.084 119.925C160.691 119.925 161.202 120.127 161.617 120.542C162.041 120.956 162.253 121.486 162.253 122.132C162.253 122.788 162.031 123.328 161.578 123.761C161.125 124.185 160.556 124.398 159.862 124.398ZM161.414 122.132C161.414 121.274 160.807 120.667 159.891 120.667C159.477 120.667 159.111 120.802 158.773 121.062C158.445 121.323 158.282 121.66 158.282 122.084C158.282 122.518 158.436 122.884 158.735 123.164C159.033 123.443 159.409 123.588 159.862 123.588C160.315 123.588 160.682 123.453 160.971 123.173C161.27 122.894 161.414 122.547 161.414 122.132ZM165.409 124.398C164.686 124.398 164.078 124.157 163.596 123.675C163.114 123.183 162.874 122.585 162.874 121.862C162.874 121.139 163.114 120.542 163.596 120.06C164.078 119.568 164.686 119.327 165.409 119.327C166.363 119.327 167.163 119.819 167.539 120.59L166.835 120.995C166.594 120.484 166.054 120.147 165.409 120.147C164.927 120.147 164.522 120.311 164.194 120.638C163.876 120.966 163.712 121.371 163.712 121.862C163.712 122.344 163.876 122.749 164.194 123.077C164.522 123.405 164.927 123.569 165.409 123.569C166.054 123.569 166.594 123.241 166.864 122.73L167.577 123.144C167.163 123.906 166.344 124.398 165.409 124.398ZM168.755 119.453H172.331V124.272H171.492V120.262H169.593V122.229C169.593 123.81 168.928 124.378 167.772 124.272V123.482C168.427 123.569 168.755 123.241 168.755 122.209V119.453ZM175.578 123.231L176.966 119.453H177.862L175.896 124.571C175.481 125.66 174.71 126.268 173.756 126.2V125.419C174.344 125.467 174.778 125.14 175.057 124.455L175.134 124.282L173.042 119.453H173.929L175.578 123.231ZM178.562 119.453H181.724V120.262H179.401V124.272H178.562V119.453ZM186.339 123.665C185.847 124.157 185.24 124.398 184.536 124.398C183.833 124.398 183.225 124.157 182.734 123.665C182.242 123.173 182.001 122.576 182.001 121.862C182.001 121.149 182.242 120.551 182.734 120.06C183.225 119.568 183.833 119.327 184.536 119.327C185.24 119.327 185.847 119.568 186.339 120.06C186.831 120.551 187.081 121.149 187.081 121.862C187.081 122.576 186.831 123.173 186.339 123.665ZM184.536 123.578C185.018 123.578 185.423 123.414 185.751 123.087C186.079 122.759 186.243 122.354 186.243 121.862C186.243 121.371 186.079 120.966 185.751 120.638C185.423 120.311 185.018 120.147 184.536 120.147C184.064 120.147 183.659 120.311 183.332 120.638C183.004 120.966 182.84 121.371 182.84 121.862C182.84 122.354 183.004 122.759 183.332 123.087C183.659 123.414 184.064 123.578 184.536 123.578ZM191.28 121.795C191.771 121.997 192.022 122.373 192.022 122.913C192.022 123.713 191.472 124.272 190.48 124.272H188.07V119.453H190.287C191.251 119.453 191.8 119.983 191.8 120.764C191.8 121.226 191.627 121.573 191.28 121.795ZM190.248 120.204H188.889V121.467H190.248C190.74 121.467 190.981 121.255 190.981 120.821C190.981 120.407 190.74 120.204 190.248 120.204ZM188.889 123.511H190.431C190.923 123.511 191.193 123.27 191.193 122.846C191.193 122.45 190.923 122.209 190.431 122.209H188.889V123.511ZM194.715 123.231L196.103 119.453H196.999L195.033 124.571C194.618 125.66 193.847 126.268 192.893 126.2V125.419C193.481 125.467 193.915 125.14 194.194 124.455L194.271 124.282L192.18 119.453H193.067L194.715 123.231ZM200.909 121.795C201.401 121.997 201.652 122.373 201.652 122.913C201.652 123.713 201.102 124.272 200.109 124.272H197.7V119.453H199.917C200.881 119.453 201.43 119.983 201.43 120.764C201.43 121.226 201.256 121.573 200.909 121.795ZM199.878 120.204H198.519V121.467H199.878C200.37 121.467 200.611 121.255 200.611 120.821C200.611 120.407 200.37 120.204 199.878 120.204ZM198.519 123.511H200.061C200.553 123.511 200.823 123.27 200.823 122.846C200.823 122.45 200.553 122.209 200.061 122.209H198.519V123.511ZM206.547 120.282V119.453H207.386V124.272H206.547V123.443C206.133 124.079 205.526 124.398 204.726 124.398C204.051 124.398 203.473 124.157 203 123.665C202.528 123.173 202.287 122.566 202.287 121.862C202.287 121.159 202.528 120.561 203 120.07C203.473 119.578 204.051 119.327 204.726 119.327C205.526 119.327 206.133 119.645 206.547 120.282ZM204.832 123.588C205.323 123.588 205.728 123.424 206.056 123.096C206.384 122.759 206.547 122.354 206.547 121.862C206.547 121.371 206.384 120.966 206.056 120.638C205.728 120.301 205.323 120.137 204.832 120.137C204.35 120.137 203.945 120.301 203.617 120.638C203.289 120.966 203.126 121.371 203.126 121.862C203.126 122.354 203.289 122.759 203.617 123.096C203.945 123.424 204.35 123.588 204.832 123.588ZM211.992 121.458V119.453H212.83V124.272H211.992V122.258H209.495V124.272H208.657V119.453H209.495V121.458H211.992ZM217.442 121.458V119.453H218.281V124.272H217.442V122.258H214.946V124.272H214.107V119.453H214.946V121.458H217.442ZM221.109 119.453H223.162V124.272H222.333V122.537H221.63L220.28 124.272H219.258L220.666 122.489C219.943 122.306 219.451 121.727 219.451 121.005C219.451 120.561 219.605 120.195 219.924 119.896C220.242 119.597 220.637 119.453 221.109 119.453ZM221.138 121.785H222.333V120.233H221.138C220.666 120.233 220.28 120.542 220.28 121.014C220.28 121.477 220.666 121.785 221.138 121.785Z" fill="#010101"/>
<path d="M149.425 129.093H153.551V129.902H151.912V133.912H151.073V129.902H149.425V129.093ZM158.724 131.888H154.685C154.849 132.746 155.514 133.247 156.43 133.247C157.066 133.247 157.529 133.016 157.818 132.543L158.531 132.948C158.059 133.671 157.355 134.037 156.411 134.037C155.649 134.037 155.023 133.796 154.541 133.324C154.068 132.842 153.827 132.235 153.827 131.502C153.827 130.779 154.059 130.172 154.531 129.69C155.003 129.208 155.611 128.967 156.353 128.967C157.056 128.967 157.635 129.218 158.078 129.719C158.531 130.211 158.753 130.808 158.753 131.512C158.753 131.637 158.743 131.763 158.724 131.888ZM156.353 129.758C155.456 129.758 154.83 130.307 154.685 131.155H157.905C157.76 130.24 157.124 129.758 156.353 129.758ZM161.833 131.425L163.674 133.912H162.691L161.342 132.09L159.983 133.912H158.999L160.85 131.435L159.105 129.093H160.098L161.342 130.77L162.585 129.093H163.568L161.833 131.425ZM167.787 131.097V129.093H168.626V133.912H167.787V131.898H165.29V133.912H164.452V129.093H165.29V131.097H167.787ZM170.326 128.215C170.008 128.215 169.758 127.965 169.758 127.656C169.758 127.348 170.008 127.088 170.326 127.088C170.635 127.088 170.885 127.348 170.885 127.656C170.885 127.965 170.635 128.215 170.326 128.215ZM170.741 133.912H169.902V129.093H170.741V133.912ZM173.717 131.425L176.098 133.912H175.056L172.859 131.628V133.912H172.02V129.093H172.859V131.223L174.941 129.093H176.02L173.717 131.425ZM177.706 132.476L180.376 129.093H181.051V133.912H180.222V130.529L177.552 133.912H176.877V129.093H177.706V132.476Z" fill="#010101"/>
<path d="M154.225 149.708V146.845H155.112V153.593H154.225V150.556H150.948V153.593H150.052V146.845H150.948V149.708H154.225ZM160.46 149.602V148.773H161.299V153.593H160.46V152.764C160.046 153.4 159.438 153.718 158.638 153.718C157.963 153.718 157.385 153.477 156.913 152.986C156.44 152.494 156.199 151.887 156.199 151.183C156.199 150.479 156.44 149.882 156.913 149.39C157.385 148.898 157.963 148.648 158.638 148.648C159.438 148.648 160.046 148.966 160.46 149.602ZM158.744 152.908C159.236 152.908 159.641 152.745 159.968 152.417C160.296 152.079 160.46 151.675 160.46 151.183C160.46 150.691 160.296 150.287 159.968 149.959C159.641 149.621 159.236 149.458 158.744 149.458C158.262 149.458 157.857 149.621 157.53 149.959C157.202 150.287 157.038 150.691 157.038 151.183C157.038 151.675 157.202 152.079 157.53 152.417C157.857 152.745 158.262 152.908 158.744 152.908ZM164.834 153.718C164.111 153.718 163.504 153.477 163.022 152.995C162.54 152.504 162.299 151.906 162.299 151.183C162.299 150.46 162.54 149.862 163.022 149.38C163.504 148.889 164.111 148.648 164.834 148.648C165.789 148.648 166.589 149.139 166.965 149.911L166.261 150.315C166.02 149.805 165.48 149.467 164.834 149.467C164.352 149.467 163.948 149.631 163.62 149.959C163.302 150.287 163.138 150.691 163.138 151.183C163.138 151.665 163.302 152.07 163.62 152.398C163.948 152.725 164.352 152.889 164.834 152.889C165.48 152.889 166.02 152.561 166.29 152.05L167.003 152.465C166.589 153.226 165.769 153.718 164.834 153.718ZM167.216 148.773H171.342V149.583H169.703V153.593H168.864V149.583H167.216V148.773ZM174.737 148.648C175.412 148.648 175.99 148.898 176.462 149.39C176.935 149.882 177.176 150.479 177.176 151.183C177.176 151.887 176.935 152.494 176.462 152.986C175.99 153.477 175.412 153.718 174.737 153.718C173.937 153.718 173.33 153.4 172.915 152.764V155.521H172.077V148.773H172.915V149.602C173.33 148.966 173.937 148.648 174.737 148.648ZM174.631 152.908C175.113 152.908 175.518 152.745 175.846 152.417C176.173 152.079 176.337 151.675 176.337 151.183C176.337 150.691 176.173 150.287 175.846 149.959C175.518 149.621 175.113 149.458 174.631 149.458C174.139 149.458 173.735 149.621 173.407 149.959C173.079 150.287 172.915 150.691 172.915 151.183C172.915 151.675 173.079 152.079 173.407 152.417C173.735 152.745 174.139 152.908 174.631 152.908ZM182.244 152.986C181.753 153.477 181.145 153.718 180.442 153.718C179.738 153.718 179.131 153.477 178.639 152.986C178.148 152.494 177.907 151.896 177.907 151.183C177.907 150.47 178.148 149.872 178.639 149.38C179.131 148.889 179.738 148.648 180.442 148.648C181.145 148.648 181.753 148.889 182.244 149.38C182.736 149.872 182.986 150.47 182.986 151.183C182.986 151.896 182.736 152.494 182.244 152.986ZM180.442 152.899C180.924 152.899 181.328 152.735 181.656 152.407C181.984 152.079 182.148 151.675 182.148 151.183C182.148 150.691 181.984 150.287 181.656 149.959C181.328 149.631 180.924 149.467 180.442 149.467C179.969 149.467 179.564 149.631 179.237 149.959C178.909 150.287 178.745 150.691 178.745 151.183C178.745 151.675 178.909 152.079 179.237 152.407C179.564 152.735 179.969 152.899 180.442 152.899ZM187.368 148.05H184.765V147.318H187.368V148.05ZM184.804 152.157L187.474 148.773H188.149V153.593H187.32V150.209L184.65 153.593H183.975V148.773H184.804V152.157ZM191.122 151.106L193.503 153.593H192.462L190.264 151.308V153.593H189.425V148.773H190.264V150.903L192.346 148.773H193.426L191.122 151.106ZM197.831 149.602V148.773H198.669V153.593H197.831V152.764C197.416 153.4 196.809 153.718 196.009 153.718C195.334 153.718 194.756 153.477 194.284 152.986C193.811 152.494 193.57 151.887 193.57 151.183C193.57 150.479 193.811 149.882 194.284 149.39C194.756 148.898 195.334 148.648 196.009 148.648C196.809 148.648 197.416 148.966 197.831 149.602ZM196.115 152.908C196.607 152.908 197.011 152.745 197.339 152.417C197.667 152.079 197.831 151.675 197.831 151.183C197.831 150.691 197.667 150.287 197.339 149.959C197.011 149.621 196.607 149.458 196.115 149.458C195.633 149.458 195.228 149.621 194.9 149.959C194.573 150.287 194.409 150.691 194.409 151.183C194.409 151.675 194.573 152.079 194.9 152.417C195.228 152.745 195.633 152.908 196.115 152.908ZM206.273 148.773H207.169V153.593H206.35V150.094L204.817 152.561H204.711L203.179 150.094V153.593H202.35V148.773H203.246L204.76 151.212L206.273 148.773ZM213.076 151.569H209.038C209.201 152.426 209.867 152.928 210.782 152.928C211.418 152.928 211.881 152.696 212.17 152.224L212.884 152.629C212.411 153.352 211.708 153.718 210.763 153.718C210.001 153.718 209.375 153.477 208.893 153.005C208.421 152.523 208.18 151.916 208.18 151.183C208.18 150.46 208.411 149.853 208.883 149.371C209.356 148.889 209.963 148.648 210.705 148.648C211.409 148.648 211.987 148.898 212.431 149.4C212.884 149.891 213.105 150.489 213.105 151.193C213.105 151.318 213.096 151.443 213.076 151.569ZM210.705 149.438C209.809 149.438 209.182 149.988 209.038 150.836H212.257C212.112 149.92 211.476 149.438 210.705 149.438ZM216.73 148.648C217.404 148.648 217.983 148.898 218.455 149.39C218.927 149.882 219.168 150.479 219.168 151.183C219.168 151.887 218.927 152.494 218.455 152.986C217.983 153.477 217.404 153.718 216.73 153.718C215.93 153.718 215.322 153.4 214.908 152.764V155.521H214.069V148.773H214.908V149.602C215.322 148.966 215.93 148.648 216.73 148.648ZM216.624 152.908C217.106 152.908 217.511 152.745 217.838 152.417C218.166 152.079 218.33 151.675 218.33 151.183C218.33 150.691 218.166 150.287 217.838 149.959C217.511 149.621 217.106 149.458 216.624 149.458C216.132 149.458 215.727 149.621 215.4 149.959C215.072 150.287 214.908 150.691 214.908 151.183C214.908 151.675 215.072 152.079 215.4 152.417C215.727 152.745 216.132 152.908 216.624 152.908ZM224.796 151.569H220.757C220.921 152.426 221.586 152.928 222.502 152.928C223.138 152.928 223.601 152.696 223.89 152.224L224.603 152.629C224.131 153.352 223.427 153.718 222.483 153.718C221.721 153.718 221.094 153.477 220.613 153.005C220.14 152.523 219.899 151.916 219.899 151.183C219.899 150.46 220.131 149.853 220.603 149.371C221.075 148.889 221.682 148.648 222.425 148.648C223.128 148.648 223.707 148.898 224.15 149.4C224.603 149.891 224.825 150.489 224.825 151.193C224.825 151.318 224.815 151.443 224.796 151.569ZM222.425 149.438C221.528 149.438 220.902 149.988 220.757 150.836H223.977C223.832 149.92 223.196 149.438 222.425 149.438ZM229.392 151.106L231.416 153.593H230.433L228.63 151.308V153.593H227.801V151.308L225.999 153.593H225.025L227.04 151.106L225.121 148.773H226.095L227.801 150.903V148.773H228.63V150.903L230.336 148.773H231.319L229.392 151.106Z" fill="#010101"/>
<path d="M85.3208 171.41C85.3208 172.925 86.5601 174.164 88.0749 174.026C93.0322 173.751 97.9895 172.65 102.671 170.722C108.18 168.518 113.137 165.076 117.268 160.945C121.399 156.814 124.842 151.719 127.045 146.348C129.248 140.84 130.487 135.057 130.487 129.135C130.487 123.214 129.386 117.293 127.045 111.923C124.842 106.414 121.399 101.457 117.268 97.3259C113.137 93.1948 108.042 89.7524 102.671 87.5492C97.9895 85.6213 93.1699 84.5195 88.0749 84.2441C86.5601 84.1064 85.3208 85.3459 85.3208 86.8607C85.3208 88.3754 86.5601 89.6147 88.0749 89.6147C92.3437 89.8901 96.6125 90.8539 100.606 92.5063C105.425 94.5718 109.832 97.4637 113.55 101.182C117.268 104.9 120.16 109.306 122.225 114.126C124.291 118.945 125.255 124.178 125.255 129.273C125.255 134.506 124.291 139.601 122.225 144.42C120.16 149.24 117.268 153.647 113.55 157.365C109.832 161.083 105.425 163.974 100.606 166.04C96.6125 167.692 92.3437 168.656 88.0749 168.931C86.5601 168.794 85.3208 170.033 85.3208 171.41Z" fill="#F8AC22"/>
<path d="M43.3219 122.939C41.8071 122.664 40.4302 123.765 40.2925 125.28C39.8794 130.513 40.2924 135.883 41.8072 140.978C43.4596 146.899 46.3513 152.545 50.207 157.365C54.0627 162.184 59.02 166.178 64.5282 169.07C69.2101 171.548 74.3051 173.063 79.5378 173.751C81.0526 173.889 82.2919 172.787 82.4296 171.273C82.5673 169.758 81.4657 168.519 79.9509 168.243C75.4067 167.555 71.1379 166.178 67.0068 164.112C62.1872 161.633 57.9184 158.053 54.4759 153.784C51.0333 149.516 48.5546 144.558 47.0399 139.326C45.8005 134.919 45.3874 130.375 45.6628 125.831C45.8005 124.591 44.8366 123.214 43.3219 122.939Z" fill="#73B849"/>
<path d="M82.9801 86.5855C82.8424 85.0707 81.603 83.9694 80.0883 84.1071C71.1376 85.2087 62.6 88.9264 55.7148 94.8476C48.8297 100.769 44.0101 108.756 41.6692 117.431C41.2561 118.946 42.22 120.323 43.7347 120.598C45.2495 120.874 46.6264 119.91 47.0396 118.533C49.1051 110.959 53.3739 104.074 59.2952 98.9787C65.2164 93.746 72.6523 90.5791 80.3637 89.6152C81.8784 89.4775 82.9801 88.1002 82.9801 86.5855Z" fill="#F4F6F8"/>
<path d="M141.917 104.762C143.21 104.762 144.258 103.714 144.258 102.421C144.258 101.128 143.21 100.08 141.917 100.08C140.624 100.08 139.576 101.128 139.576 102.421C139.576 103.714 140.624 104.762 141.917 104.762Z" fill="#F8AC22"/>
<path d="M141.917 123.49C143.21 123.49 144.258 122.442 144.258 121.149C144.258 119.856 143.21 118.808 141.917 118.808C140.624 118.808 139.576 119.856 139.576 121.149C139.576 122.442 140.624 123.49 141.917 123.49Z" fill="#73B849"/>
<path d="M141.917 153.096C143.21 153.096 144.258 152.048 144.258 150.755C144.258 149.462 143.21 148.414 141.917 148.414C140.624 148.414 139.576 149.462 139.576 150.755C139.576 152.048 140.624 153.096 141.917 153.096Z" fill="#F4F6F8"/>
<defs>
<radialGradient id="paint0_radial_346_301" cx="0" cy="0" r="1" gradientUnits="userSpaceOnUse" gradientTransform="translate(137.774 265.886) scale(116.041 116.041)">
<stop offset="0.00526316" stop-color="#58A3DA"/>
<stop offset="1" stop-color="#0DB2AA" stop-opacity="0"/>
</radialGradient>
</defs>
</svg>
