<svg width="264" height="225" viewBox="0 0 264 225" fill="none" xmlns="http://www.w3.org/2000/svg">
<path d="M132.043 223.05C202.618 223.05 259.831 218.241 259.831 212.309C259.831 206.377 202.618 201.568 132.043 201.568C61.4672 201.568 4.25439 206.377 4.25439 212.309C4.25439 218.241 61.4672 223.05 132.043 223.05Z" fill="#848AC3"/>
<path d="M246.749 224.289H18.0244C8.93596 224.289 1.5 216.853 1.5 207.764V17.4589C1.5 8.37053 8.93596 0.93457 18.0244 0.93457H246.749C255.837 0.93457 263.273 8.37053 263.273 17.4589V207.764C263.273 216.853 255.837 224.289 246.749 224.289Z" fill="#070507"/>
<mask id="mask0_346_299" style="mask-type:luminance" maskUnits="userSpaceOnUse" x="0" y="0" width="263" height="225">
<path d="M245.648 224.289H16.9233C7.83489 224.289 0.398926 216.853 0.398926 207.764V17.4589C0.398926 8.37053 7.83489 0.93457 16.9233 0.93457H245.648C254.736 0.93457 262.172 8.37053 262.172 17.4589V207.764C262.172 216.853 254.736 224.289 245.648 224.289Z" fill="white"/>
</mask>
<g mask="url(#mask0_346_299)">
<path opacity="0.51" d="M2.87735 680.223C165.703 680.223 297.7 548.227 297.7 385.401C297.7 222.575 165.703 90.5791 2.87735 90.5791C-159.948 90.5791 -291.945 222.575 -291.945 385.401C-291.945 548.227 -159.948 680.223 2.87735 680.223Z" fill="url(#paint0_radial_346_299)"/>
</g>
<path d="M202.547 200.879H61.8144C52.726 200.879 45.29 193.443 45.29 184.354V43.622C45.29 34.5336 52.726 27.0977 61.8144 27.0977H202.547C211.635 27.0977 219.071 34.5336 219.071 43.622V184.354C219.071 193.443 211.635 200.879 202.547 200.879Z" fill="white"/>
<path d="M202.547 27.0977H61.8144C52.726 27.0977 45.29 34.5336 45.29 43.622V64.8285H219.071V43.622C219.071 34.5336 211.635 27.0977 202.547 27.0977Z" fill="#F4F6F8"/>
<path d="M167.708 130.789H96.6533C87.5649 130.789 80.1289 123.353 80.1289 114.264V113.576C80.1289 104.487 87.5649 97.0515 96.6533 97.0515H167.708C176.796 97.0515 184.232 104.487 184.232 113.576V114.264C184.232 123.353 176.796 130.789 167.708 130.789Z" fill="#73B849"/>
<path d="M103.263 179.122C112.465 179.122 119.925 171.662 119.925 162.46C119.925 153.258 112.465 145.798 103.263 145.798C94.0605 145.798 86.6006 153.258 86.6006 162.46C86.6006 171.662 94.0605 179.122 103.263 179.122Z" fill="#FBDFDF"/>
<path d="M162.338 179.122C171.54 179.122 179 171.662 179 162.46C179 153.258 171.54 145.798 162.338 145.798C153.136 145.798 145.676 153.258 145.676 162.46C145.676 171.662 153.136 179.122 162.338 179.122Z" fill="#FFEFDD"/>
<path d="M119.929 117.981C119.038 119.206 117.795 119.819 116.18 119.819C114.565 119.819 113.322 119.206 112.412 117.981C111.521 116.756 111.076 115.123 111.076 113.081C111.076 111.039 111.521 109.406 112.412 108.181C113.322 106.956 114.565 106.344 116.18 106.344C117.795 106.344 119.038 106.956 119.929 108.181C120.839 109.406 121.284 111.039 121.284 113.081C121.284 115.123 120.839 116.756 119.929 117.981ZM116.18 117.74C118.11 117.74 119.15 116.069 119.15 113.081C119.15 110.093 118.11 108.422 116.18 108.422C114.268 108.422 113.21 110.093 113.21 113.081C113.21 116.069 114.268 117.74 116.18 117.74ZM121.903 107.791L125.319 106.585H127.175V119.577H125.04V108.868L122.423 109.61L121.903 107.791ZM129.552 111.448C129.552 110.65 130.146 110.056 130.944 110.056C132.132 109.982 132.818 111.633 131.927 112.432C131.129 113.322 129.477 112.636 129.552 111.448ZM130.944 117.016C131.705 117.016 132.336 117.647 132.336 118.408C132.336 119.169 131.705 119.8 130.944 119.8C130.183 119.8 129.552 119.169 129.552 118.408C129.552 117.647 130.146 117.016 130.944 117.016ZM142.431 119.577H133.874V117.907L138.403 113.285C139.498 112.19 140.055 111.225 140.055 110.427C140.055 109.165 139.22 108.422 138.05 108.422C136.955 108.422 136.157 108.961 135.637 110.037L133.837 108.979C134.654 107.253 136.231 106.344 138.032 106.344C139.164 106.344 140.148 106.696 140.964 107.42C141.781 108.144 142.189 109.109 142.189 110.353C142.189 111.671 141.447 113.081 139.981 114.585L137.048 117.517H142.431V119.577ZM152.538 117.981C151.647 119.206 150.403 119.819 148.788 119.819C147.173 119.819 145.93 119.206 145.02 117.981C144.13 116.756 143.684 115.123 143.684 113.081C143.684 111.039 144.13 109.406 145.02 108.181C145.93 106.956 147.173 106.344 148.788 106.344C150.403 106.344 151.647 106.956 152.538 108.181C153.447 109.406 153.892 111.039 153.892 113.081C153.892 115.123 153.447 116.756 152.538 117.981ZM148.788 117.74C150.719 117.74 151.758 116.069 151.758 113.081C151.758 110.093 150.719 108.422 148.788 108.422C146.876 108.422 145.819 110.093 145.819 113.081C145.819 116.069 146.876 117.74 148.788 117.74Z" fill="white"/>
<path d="M66.4229 44.4165H65.1095L64.5905 42.923H61.434L60.915 44.4165H59.591L62.2814 37.0021H63.7431L66.4229 44.4165ZM63.0123 38.432L61.8365 41.7791H64.188L63.0123 38.432ZM71.8582 39.1205V43.3361H72.5679V45.8358H71.4451V44.4165H67.8121V45.8358H66.6893V43.3361H67.3354C67.6638 42.8807 67.8227 42.2346 67.8227 41.419V39.1205H71.8582ZM68.5959 43.3361H70.7355V40.1691H68.9454V41.419C68.9454 42.171 68.8289 42.8171 68.5959 43.3361ZM77.7339 39.1205H78.899V44.4165H77.7868V40.9317L76.2616 43.3573H76.1239L74.6092 40.9423V44.4165H73.4971V39.1205H74.6622L76.198 41.5673L77.7339 39.1205ZM81.3009 38.1143C81.0149 38.4003 80.57 38.4003 80.2735 38.1143C79.9875 37.8177 79.9875 37.3728 80.2735 37.0869C80.5594 36.7903 81.0255 36.7903 81.3115 37.0869C81.5974 37.3728 81.5974 37.8177 81.3009 38.1143ZM81.3644 44.4165H80.2205V39.1205H81.3644V44.4165ZM86.2621 41.2283V39.1205H87.4061V44.4165H86.2621V42.3087H83.8366V44.4165H82.6926V39.1205H83.8366V41.2283H86.2621ZM89.8138 38.1143C89.5278 38.4003 89.0829 38.4003 88.7863 38.1143C88.5004 37.8177 88.5004 37.3728 88.7863 37.0869C89.0723 36.7903 89.5384 36.7903 89.8244 37.0869C90.1103 37.3728 90.1103 37.8177 89.8138 38.1143ZM89.8773 44.4165H88.7334V39.1205H89.8773V44.4165ZM93.7052 44.5542C92.9108 44.5542 92.2435 44.2894 91.7034 43.7492C91.1738 43.209 90.909 42.5523 90.909 41.7685C90.909 40.9741 91.1738 40.3174 91.7034 39.7878C92.2435 39.2476 92.9108 38.9828 93.7052 38.9828C94.7327 38.9828 95.6436 39.5124 96.0672 40.3492L95.0822 40.9212C94.8386 40.4127 94.3302 40.1056 93.6946 40.1056C93.2286 40.1056 92.8367 40.2644 92.5189 40.5822C92.2118 40.9 92.0529 41.2919 92.0529 41.7685C92.0529 42.2451 92.2118 42.6371 92.5189 42.9548C92.8367 43.2726 93.2286 43.4315 93.6946 43.4315C94.3196 43.4315 94.8492 43.1137 95.1034 42.6159L96.0884 43.1772C95.633 44.0246 94.7327 44.5542 93.7052 44.5542ZM96.3022 39.1205H100.91V40.2221H99.1832V44.4165H98.0393V40.2221H96.3022V39.1205ZM104.681 38.9828C105.412 38.9828 106.026 39.2582 106.545 39.7984C107.064 40.3386 107.319 40.9953 107.319 41.7685C107.319 42.5523 107.064 43.209 106.545 43.7492C106.026 44.2894 105.412 44.5542 104.681 44.5542C103.876 44.5542 103.262 44.2576 102.828 43.6645V46.5349H101.684V39.1205H102.828V39.8831C103.262 39.2794 103.876 38.9828 104.681 38.9828ZM103.304 42.9866C103.622 43.3043 104.025 43.4632 104.501 43.4632C104.978 43.4632 105.38 43.3043 105.698 42.9866C106.016 42.6582 106.175 42.2557 106.175 41.7685C106.175 41.2813 106.016 40.8788 105.698 40.561C105.38 40.2327 104.978 40.0738 104.501 40.0738C104.025 40.0738 103.622 40.2327 103.304 40.561C102.987 40.8788 102.828 41.2813 102.828 41.7685C102.828 42.2557 102.987 42.6582 103.304 42.9866ZM112.55 39.8725V39.1205H113.694V44.4165H112.55V43.6539C112.116 44.2576 111.501 44.5542 110.696 44.5542C109.965 44.5542 109.351 44.2894 108.832 43.7492C108.313 43.209 108.059 42.5417 108.059 41.7685C108.059 40.9847 108.313 40.328 108.832 39.7878C109.351 39.2476 109.965 38.9828 110.696 38.9828C111.501 38.9828 112.116 39.2794 112.55 39.8725ZM109.679 42.9866C109.997 43.3043 110.4 43.4632 110.876 43.4632C111.353 43.4632 111.755 43.3043 112.073 42.9866C112.391 42.6582 112.55 42.2557 112.55 41.7685C112.55 41.2813 112.391 40.8788 112.073 40.561C111.755 40.2327 111.353 40.0738 110.876 40.0738C110.4 40.0738 109.997 40.2327 109.679 40.561C109.362 40.8788 109.203 41.2813 109.203 41.7685C109.203 42.2557 109.362 42.6582 109.679 42.9866ZM114.466 39.1205H119.073V40.2221H117.347V44.4165H116.203V40.2221H114.466V39.1205ZM122.14 44.5542C121.367 44.5542 120.7 44.2894 120.159 43.7492C119.619 43.209 119.344 42.5523 119.344 41.7685C119.344 40.9847 119.619 40.328 120.159 39.7878C120.7 39.2476 121.367 38.9828 122.14 38.9828C122.924 38.9828 123.581 39.2476 124.121 39.7878C124.661 40.328 124.936 40.9847 124.936 41.7685C124.936 42.5523 124.661 43.209 124.121 43.7492C123.581 44.2894 122.924 44.5542 122.14 44.5542ZM120.964 42.9654C121.282 43.2832 121.674 43.442 122.14 43.442C122.606 43.442 122.998 43.2832 123.316 42.9654C123.634 42.6476 123.792 42.2451 123.792 41.7685C123.792 41.2919 123.634 40.8894 123.316 40.5716C122.998 40.2539 122.606 40.095 122.14 40.095C121.674 40.095 121.282 40.2539 120.964 40.5716C120.647 40.8894 120.488 41.2919 120.488 41.7685C120.488 42.2451 120.647 42.6476 120.964 42.9654ZM128.968 38.9828C129.699 38.9828 130.314 39.2582 130.833 39.7984C131.352 40.3386 131.606 40.9953 131.606 41.7685C131.606 42.5523 131.352 43.209 130.833 43.7492C130.314 44.2894 129.699 44.5542 128.968 44.5542C128.163 44.5542 127.549 44.2576 127.115 43.6645V46.5349H125.971V39.1205H127.115V39.8831C127.549 39.2794 128.163 38.9828 128.968 38.9828ZM127.591 42.9866C127.909 43.3043 128.312 43.4632 128.788 43.4632C129.265 43.4632 129.667 43.3043 129.985 42.9866C130.303 42.6582 130.462 42.2557 130.462 41.7685C130.462 41.2813 130.303 40.8788 129.985 40.561C129.667 40.2327 129.265 40.0738 128.788 40.0738C128.312 40.0738 127.909 40.2327 127.591 40.561C127.274 40.8788 127.115 41.2813 127.115 41.7685C127.115 42.2557 127.274 42.6582 127.591 42.9866Z" fill="#010101"/>
<path d="M63.119 54.0187C63.6317 54.2373 63.9634 54.7123 63.9634 55.2854C63.9634 55.6925 63.8202 56.0393 63.5336 56.3258C63.2471 56.6124 62.9003 56.7556 62.4932 56.7556H60.1935V51.4778H62.3197C62.7118 51.4778 63.0436 51.621 63.3225 51.9C63.6015 52.179 63.7372 52.5107 63.7372 52.8952C63.7372 53.3853 63.5336 53.7623 63.119 54.0187ZM62.3197 51.9754H60.7213V53.8151H62.3197C62.5685 53.8151 62.7721 53.7246 62.9455 53.5512C63.119 53.3702 63.2094 53.1516 63.2094 52.8952C63.2094 52.6464 63.119 52.4278 62.9455 52.2468C62.7721 52.0659 62.5685 51.9754 62.3197 51.9754ZM60.7213 56.258H62.4932C62.757 56.258 62.9757 56.1675 63.1567 55.979C63.3451 55.7905 63.4356 55.5568 63.4356 55.2854C63.4356 55.0215 63.3451 54.7877 63.1567 54.5992C62.9757 54.4107 62.757 54.3127 62.4932 54.3127H60.7213V56.258ZM66.3429 54.8028L67.8131 56.7556H67.2175L66.0413 55.2024L64.8651 56.7556H64.2694L65.7472 54.8028L64.3674 52.9857H64.9631L66.0413 54.4107L67.1195 52.9857H67.7151L66.3429 54.8028ZM68.9951 52.0809C68.8518 52.2242 68.6257 52.2242 68.4824 52.0809C68.3391 51.9377 68.3391 51.7115 68.4824 51.5682C68.6257 51.425 68.8518 51.425 68.9951 51.5682C69.1384 51.7115 69.1384 51.9377 68.9951 52.0809ZM68.9876 56.7556H68.4899V52.9857H68.9876V56.7556ZM73.2103 52.9857V56.2731H73.738V57.7659H73.2404V56.7556H70.1642V57.7659H69.6666V56.2731H70.1265C70.3828 55.9338 70.511 55.4588 70.511 54.848V52.9857H73.2103ZM70.7297 56.2731H72.7126V53.4683H71.0086V54.848C71.0086 55.4286 70.9182 55.9036 70.7297 56.2731ZM77.1599 54.6294V52.9857H77.6576V56.7556H77.1599V55.1119H74.9885V56.7556H74.4908V52.9857H74.9885V54.6294H77.1599ZM79.2075 55.8885L81.4544 52.9857H81.8766V56.7556H81.379V53.8528L79.1321 56.7556H78.7099V52.9857H79.2075V55.8885ZM85.4925 52.3825H83.5321V51.9452H85.4925V52.3825ZM83.4266 55.8885L85.6734 52.9857H86.0956V56.7556H85.598V53.8528L83.3512 56.7556H82.9289V52.9857H83.4266V55.8885ZM90.9782 54.8179C91.4155 54.9838 91.6341 55.2854 91.6341 55.7227C91.6341 56.0318 91.5135 56.3032 91.2647 56.5219C91.0234 56.7405 90.6766 56.8461 90.2242 56.8461C89.4627 56.8461 88.9651 56.5445 88.7313 55.9413L89.1536 55.6925C89.3119 56.1374 89.6663 56.3635 90.2242 56.3635C90.8048 56.3635 91.1365 56.0846 91.1365 55.6925C91.1365 55.3381 90.8575 55.0969 90.4127 55.0969H89.8623V54.6143H90.2619C90.6917 54.6143 90.9556 54.3881 90.9556 54.0036C90.9556 53.6417 90.6389 53.3778 90.1488 53.3778C89.6738 53.3778 89.3647 53.5663 89.2063 53.9433L88.7916 53.702C89.0405 53.1667 89.4928 52.8952 90.1488 52.8952C90.5484 52.8952 90.8651 53.0008 91.0988 53.2119C91.3326 53.4155 91.4532 53.6718 91.4532 53.9734C91.4532 54.358 91.2949 54.6445 90.9782 54.8179ZM94.7881 54.8179C95.2028 54.9687 95.4064 55.2627 95.4064 55.7C95.4064 56.3108 94.9842 56.7556 94.2226 56.7556H92.3905V52.9857H94.0718C94.8032 52.9857 95.2254 53.4004 95.2254 53.9961C95.2254 54.373 95.0822 54.6445 94.7881 54.8179ZM94.0718 53.4683H92.8881V54.6143H94.0718C94.5092 54.6143 94.7278 54.4183 94.7278 54.0262C94.7278 53.6718 94.4941 53.4683 94.0718 53.4683ZM92.8881 56.2731H94.2226C94.6675 56.2731 94.9088 56.0544 94.9088 55.6699C94.9088 55.3155 94.6675 55.0969 94.2226 55.0969H92.8881V56.2731ZM96.6655 52.0809C96.5223 52.2242 96.2961 52.2242 96.1528 52.0809C96.0096 51.9377 96.0096 51.7115 96.1528 51.5682C96.2961 51.425 96.5223 51.425 96.6655 51.5682C96.8088 51.7115 96.8088 51.9377 96.6655 52.0809ZM96.658 56.7556H96.1604V52.9857H96.658V56.7556ZM100.383 54.6294V52.9857H100.881V56.7556H100.383V55.1119H98.2116V56.7556H97.714V52.9857H98.2116V54.6294H100.383ZM105.092 56.2806C104.708 56.6576 104.24 56.8461 103.69 56.8461C103.139 56.8461 102.664 56.6576 102.28 56.2806C101.895 55.8961 101.707 55.4286 101.707 54.8707C101.707 54.3127 101.895 53.8453 102.28 53.4683C102.664 53.0837 103.139 52.8952 103.69 52.8952C104.24 52.8952 104.708 53.0837 105.092 53.4683C105.477 53.8453 105.673 54.3127 105.673 54.8707C105.673 55.4286 105.477 55.8961 105.092 56.2806ZM102.634 55.9338C102.921 56.2203 103.275 56.3635 103.69 56.3635C104.104 56.3635 104.459 56.2203 104.745 55.9338C105.032 55.6397 105.175 55.2854 105.175 54.8707C105.175 54.456 105.032 54.1016 104.745 53.8151C104.459 53.521 104.104 53.3778 103.69 53.3778C103.275 53.3778 102.921 53.521 102.634 53.8151C102.348 54.1016 102.204 54.456 102.204 54.8707C102.204 55.2854 102.348 55.6397 102.634 55.9338ZM107.531 54.7953L109.552 56.7556H108.888L107.003 54.9385V56.7556H106.505V52.9857H107.003V54.652L108.798 52.9857H109.476L107.531 54.7953Z" fill="#73B849"/>
<path fill-rule="evenodd" clip-rule="evenodd" d="M110.975 165.214C111.113 164.939 111.113 164.801 111.113 163.562C111.113 162.46 111.113 162.46 110.975 162.185C110.837 161.91 110.7 161.772 110.424 161.359C110.149 161.083 109.873 160.808 109.46 160.533C106.706 158.88 101.198 158.605 97.6179 159.844C96.5162 160.257 95.8277 160.67 95.2769 161.083C95.0015 161.359 94.8638 161.634 94.7261 161.91C94.5884 162.185 94.5884 162.185 94.5884 163.287C94.5884 164.526 94.5884 164.526 94.7261 164.939C94.8638 165.077 95.1392 165.352 95.2769 165.49C95.5523 165.627 95.69 165.628 97.2048 165.628C98.031 165.628 98.7195 165.628 98.8572 165.628C99.5457 165.49 99.9588 164.939 99.9588 164.388C99.9588 164.25 99.9588 164.113 99.8211 163.837C99.8211 163.7 99.6834 163.562 99.6834 163.424C99.6834 163.011 99.8211 162.46 100.096 162.185C100.647 161.772 101.611 161.497 102.851 161.497C104.228 161.497 105.467 161.91 105.742 162.46C105.88 162.736 106.018 163.149 105.88 163.424C105.88 163.562 105.88 163.7 105.742 163.7C105.605 163.975 105.605 164.113 105.605 164.251C105.605 164.801 106.018 165.49 106.569 165.628C106.706 165.628 109.46 165.628 109.736 165.628C110.011 165.628 110.149 165.49 110.424 165.352C110.837 165.49 110.837 165.49 110.975 165.214Z" fill="#E53916"/>
<path fill-rule="evenodd" clip-rule="evenodd" d="M162.062 153.647C161.098 153.784 160.272 154.473 159.859 155.437C159.584 156.125 159.584 155.988 159.584 159.43V162.46L162.338 159.017C163.852 157.089 165.092 155.574 165.092 155.437C165.092 155.299 164.816 154.748 164.541 154.473C164.128 154.06 163.715 153.784 163.164 153.647C163.026 153.647 162.338 153.647 162.062 153.647ZM162.2 160.945C159.308 164.525 156.967 167.417 156.967 167.417C156.967 167.555 156.967 167.554 157.38 167.83C157.656 168.105 157.794 168.243 157.794 168.243C157.794 168.243 158.069 167.968 158.482 167.417C158.895 167.004 159.171 166.591 159.171 166.591C159.171 166.591 159.308 166.729 159.446 166.729C159.721 167.004 160.41 167.279 160.823 167.417C161.098 167.555 161.787 167.692 161.925 167.692C161.925 167.692 161.925 168.381 161.925 169.207V170.722H161.098H160.272V171.41V172.099H162.613H164.954V171.41V170.722H164.128H163.302V169.207V167.692H163.439C164.679 167.417 165.643 166.866 166.469 166.04C167.295 165.076 167.846 163.837 167.984 162.46V162.046H167.295H166.606V162.322C166.469 163.561 165.78 164.8 164.816 165.489C164.541 165.764 163.99 166.04 163.577 166.04C163.302 166.178 163.164 166.177 162.613 166.177C161.925 166.177 161.649 166.04 161.098 165.902C160.823 165.764 160.134 165.351 160.134 165.214C160.134 165.214 160.272 164.938 160.41 164.8L160.685 164.387L160.823 164.525C161.374 164.938 161.925 165.076 162.475 165.076C163.302 165.076 163.99 164.8 164.679 164.112C164.954 163.837 165.229 163.423 165.367 163.01L165.505 162.735V160.669V158.604L166.882 156.951L168.259 155.299L167.846 154.886C167.57 154.611 167.433 154.473 167.433 154.473C167.295 154.473 165.092 157.364 162.2 160.945ZM157.38 162.735C157.38 163.286 157.518 163.837 157.656 164.25C157.794 164.801 157.793 164.801 158.207 164.25C158.757 163.561 158.757 163.699 158.62 163.286C158.62 163.148 158.482 162.873 158.482 162.597V162.322H157.794H157.105L157.38 162.735Z" fill="#F39662"/>
<defs>
<radialGradient id="paint0_radial_346_299" cx="0" cy="0" r="1" gradientUnits="userSpaceOnUse" gradientTransform="translate(2.92004 385.346) scale(294.838 294.838)">
<stop stop-color="#F8AC22"/>
<stop offset="0.3921" stop-color="#F8AC22"/>
<stop offset="0.4582" stop-color="#E7A021" stop-opacity="0.8913"/>
<stop offset="0.5897" stop-color="#BA821D" stop-opacity="0.675"/>
<stop offset="0.7744" stop-color="#715117" stop-opacity="0.3711"/>
<stop offset="1" stop-color="#0F0F0F" stop-opacity="0"/>
</radialGradient>
</defs>
</svg>
