<svg width="262" height="225" viewBox="0 0 262 225" fill="none" xmlns="http://www.w3.org/2000/svg">
<path d="M130.885 220.295C201.461 220.295 258.673 215.486 258.673 209.554C258.673 203.622 201.461 198.813 130.885 198.813C60.3095 198.813 3.09668 203.622 3.09668 209.554C3.09668 215.486 60.3095 220.295 130.885 220.295Z" fill="#848AC3"/>
<path d="M245.454 224.289H16.7294C7.64104 224.289 0.205078 216.853 0.205078 207.764V17.4589C0.205078 8.37053 7.64104 0.93457 16.7294 0.93457H245.454C254.543 0.93457 261.978 8.37053 261.978 17.4589V207.764C261.978 216.853 254.543 224.289 245.454 224.289Z" fill="#070507"/>
<path d="M189.409 190.689H68.7807C59.6923 190.689 52.2563 183.253 52.2563 174.164V42.1074C52.2563 33.019 59.6923 25.583 68.7807 25.583H189.409C198.497 25.583 205.933 33.019 205.933 42.1074V174.164C205.933 183.253 198.497 190.689 189.409 190.689Z" fill="white"/>
<path d="M189.546 25.583H68.643C59.6923 25.583 52.2563 32.8811 52.2563 41.9695V58.3561H205.933V41.9695C205.933 33.0188 198.635 25.583 189.546 25.583Z" fill="#F4F6F8"/>
<g opacity="0.22">
<path d="M205.245 105.588H80.2104C71.122 105.588 63.686 98.1522 63.686 89.0638V79.0114C63.686 69.923 71.122 62.4871 80.2104 62.4871H205.245C214.333 62.4871 221.769 69.923 221.769 79.0114V89.0638C221.769 98.1522 214.333 105.588 205.245 105.588Z" stroke="#3B3A3A" stroke-width="4.13109" stroke-miterlimit="10"/>
<path d="M205.244 152.683H80.2099C71.1215 152.683 63.6855 145.247 63.6855 136.158V126.106C63.6855 117.018 71.1215 109.582 80.2099 109.582H205.244C214.333 109.582 221.769 117.018 221.769 126.106V136.158C221.769 145.247 214.333 152.683 205.244 152.683Z" stroke="#3B3A3A" stroke-width="4.13109" stroke-miterlimit="10"/>
<path d="M205.244 199.778H80.2099C71.1215 199.778 63.6855 192.342 63.6855 183.253V173.201C63.6855 164.113 71.1215 156.677 80.2099 156.677H205.244C214.333 156.677 221.769 164.113 221.769 173.201V183.253C221.769 192.342 214.333 199.778 205.244 199.778Z" stroke="#3B3A3A" stroke-width="4.13109" stroke-miterlimit="10"/>
</g>
<path d="M205.245 105.588H80.2104C71.122 105.588 63.686 98.1522 63.686 89.0638V79.0114C63.686 69.923 71.122 62.4871 80.2104 62.4871H205.245C214.333 62.4871 221.769 69.923 221.769 79.0114V89.0638C221.769 98.1522 214.333 105.588 205.245 105.588Z" fill="white"/>
<path d="M205.244 152.683H80.2099C71.1215 152.683 63.6855 145.247 63.6855 136.158V126.106C63.6855 117.018 71.1215 109.582 80.2099 109.582H205.244C214.333 109.582 221.769 117.018 221.769 126.106V136.158C221.769 145.247 214.333 152.683 205.244 152.683Z" fill="white"/>
<path d="M205.244 199.778H80.2099C71.1215 199.778 63.6855 192.342 63.6855 183.253V173.201C63.6855 164.113 71.1215 156.677 80.2099 156.677H205.244C214.333 156.677 221.769 164.113 221.769 173.201V183.253C221.769 192.342 214.333 199.778 205.244 199.778Z" fill="white"/>
<path d="M71.9649 44.7148H70.6515L70.1325 43.2214H66.976L66.457 44.7148H65.133L67.8234 37.3005H69.2851L71.9649 44.7148ZM68.5542 38.7304L67.3785 42.0774H69.73L68.5542 38.7304ZM72.688 39.4189H77.4014V44.7148H76.2575V40.4992H73.8319V44.7148H72.688V39.4189ZM78.7287 39.4189H82.2771V40.5204H79.8727V44.7148H78.7287V39.4189ZM86.05 39.2812C86.7808 39.2812 87.3951 39.5566 87.9141 40.0967C88.4332 40.6369 88.6874 41.2936 88.6874 42.0668C88.6874 42.8507 88.4332 43.5074 87.9141 44.0475C87.3951 44.5877 86.7808 44.8525 86.05 44.8525C85.245 44.8525 84.6306 44.556 84.1964 43.9628V46.8332H83.0524V39.4189H84.1964V40.1815C84.6306 39.5777 85.245 39.2812 86.05 39.2812ZM84.673 43.2849C84.9908 43.6027 85.3933 43.7616 85.8699 43.7616C86.3465 43.7616 86.749 43.6027 87.0668 43.2849C87.3845 42.9566 87.5434 42.5541 87.5434 42.0668C87.5434 41.5796 87.3845 41.1771 87.0668 40.8594C86.749 40.531 86.3465 40.3721 85.8699 40.3721C85.3933 40.3721 84.9908 40.531 84.673 40.8594C84.3552 41.1771 84.1964 41.5796 84.1964 42.0668C84.1964 42.5541 84.3552 42.9566 84.673 43.2849ZM94.8401 42.5541H90.6244C90.7939 43.3591 91.44 43.8039 92.3192 43.8039C92.9229 43.8039 93.3784 43.5815 93.6855 43.1472L94.6282 43.698C94.1092 44.4712 93.336 44.8525 92.3086 44.8525C91.4506 44.8525 90.7516 44.5877 90.222 44.0687C89.6924 43.5391 89.4276 42.8718 89.4276 42.0668C89.4276 41.2725 89.6924 40.6157 90.2114 40.0862C90.7304 39.546 91.4083 39.2812 92.2238 39.2812C92.9971 39.2812 93.6326 39.5566 94.1304 40.0967C94.6282 40.6369 94.8824 41.3042 94.8824 42.0774C94.8824 42.194 94.8718 42.3528 94.8401 42.5541ZM90.6139 41.622H93.7279C93.569 40.764 92.9653 40.3192 92.2132 40.3192C91.3659 40.3192 90.7727 40.817 90.6139 41.622ZM99.7233 38.6774H96.7575V37.6818H99.7233V38.6774ZM97.0117 42.7765L99.7233 39.4189H100.602V44.7148H99.4797V41.3466L96.7681 44.7148H95.889V39.4189H97.0117V42.7765ZM106.59 39.4189V43.6345H107.3V46.1342H106.177V44.7148H102.544V46.1342H101.421V43.6345H102.067C102.396 43.179 102.555 42.5329 102.555 41.7173V39.4189H106.59ZM103.328 43.6345H105.467V40.4675H103.677V41.7173C103.677 42.4693 103.561 43.1155 103.328 43.6345ZM115.538 39.4189V43.6345H116.247V46.1342H115.124V44.7148H111.491V46.1342H110.369V43.6345H111.015C111.343 43.179 111.502 42.5329 111.502 41.7173V39.4189H115.538ZM112.275 43.6345H114.415V40.4675H112.625V41.7173C112.625 42.4693 112.508 43.1155 112.275 43.6345ZM117.589 39.4189H121.646V44.7148H120.502V40.5204H118.733V42.4905C118.733 44.1747 117.971 44.8419 116.615 44.7148V43.6451C117.261 43.7616 117.589 43.4014 117.589 42.4376V39.4189ZM124.716 39.4189H127.078V44.7148H125.956V42.9354H125.32L123.975 44.7148H122.63L124.06 42.8295C123.329 42.5859 122.842 41.9292 122.842 41.1771C122.842 40.6899 123.011 40.2768 123.361 39.9379C123.71 39.5883 124.166 39.4189 124.716 39.4189ZM124.78 41.9503H125.956V40.4569H124.78C124.314 40.4569 123.964 40.7429 123.964 41.2089C123.964 41.6644 124.314 41.9503 124.78 41.9503ZM133.515 44.8525C132.699 44.8525 132.043 44.5877 131.524 44.0687C131.015 43.5391 130.761 42.8612 130.761 42.0457C130.761 41.1453 130.899 40.4569 131.164 39.9696C131.428 39.4718 131.979 39.027 132.795 38.6245C132.932 38.5609 133.123 38.4656 133.388 38.3491C133.653 38.2326 133.843 38.1478 133.939 38.0949C134.034 38.0419 134.161 37.9572 134.309 37.8618C134.606 37.65 134.722 37.4382 134.807 37.1098L135.739 37.65C135.697 38.1055 135.316 38.4974 135.008 38.7198C134.924 38.7939 134.775 38.8787 134.574 38.974L134.119 39.1858L133.589 39.4083C132.657 39.779 132.286 40.1179 132.117 40.7005C132.541 40.2238 133.113 39.9802 133.843 39.9802C134.468 39.9802 135.008 40.2027 135.464 40.6475C135.93 41.0924 136.163 41.6644 136.163 42.374C136.163 43.0943 135.919 43.6874 135.422 44.1535C134.934 44.6195 134.299 44.8525 133.515 44.8525ZM133.504 43.7827C134.394 43.7827 135.019 43.1896 135.019 42.374C135.019 41.5373 134.405 40.9441 133.515 40.9441C133.123 40.9441 132.763 41.0712 132.445 41.3254C132.127 41.569 131.969 41.908 131.969 42.3211C131.969 42.7447 132.117 43.0943 132.413 43.3697C132.71 43.6451 133.07 43.7827 133.504 43.7827ZM138.148 38.4126C137.862 38.6986 137.417 38.6986 137.12 38.4126C136.834 38.116 136.834 37.6712 137.12 37.3852C137.406 37.0886 137.872 37.0886 138.158 37.3852C138.444 37.6712 138.444 38.116 138.148 38.4126ZM138.211 44.7148H137.067V39.4189H138.211V44.7148ZM142.516 42.0033C143.077 42.2575 143.363 42.6812 143.363 43.2637C143.363 44.1641 142.59 44.8525 141.277 44.8525C140.207 44.8525 139.487 44.4289 139.116 43.5815L140.048 43.0307C140.239 43.5603 140.652 43.8251 141.287 43.8251C141.88 43.8251 142.24 43.5603 142.24 43.1472C142.24 42.7765 141.954 42.5435 141.478 42.5435H140.726V41.5373H141.287C141.753 41.5373 142.029 41.3042 142.029 40.9229C142.029 40.5522 141.711 40.298 141.213 40.298C140.683 40.298 140.313 40.531 140.111 40.9971L139.179 40.4675C139.571 39.6731 140.249 39.2812 141.192 39.2812C141.785 39.2812 142.251 39.4294 142.601 39.7366C142.95 40.0332 143.13 40.3933 143.13 40.8276C143.13 41.3572 142.929 41.7491 142.516 42.0033ZM147.867 41.5267V39.4189H149.011V44.7148H147.867V42.607H145.442V44.7148H144.298V39.4189H145.442V41.5267H147.867ZM155.454 42.5541H151.239C151.408 43.3591 152.054 43.8039 152.933 43.8039C153.537 43.8039 153.993 43.5815 154.3 43.1472L155.242 43.698C154.723 44.4712 153.95 44.8525 152.923 44.8525C152.065 44.8525 151.366 44.5877 150.836 44.0687C150.307 43.5391 150.042 42.8718 150.042 42.0668C150.042 41.2725 150.307 40.6157 150.826 40.0862C151.345 39.546 152.022 39.2812 152.838 39.2812C153.611 39.2812 154.247 39.5566 154.745 40.0967C155.242 40.6369 155.497 41.3042 155.497 42.0774C155.497 42.194 155.486 42.3528 155.454 42.5541ZM151.228 41.622H154.342C154.183 40.764 153.58 40.3192 152.827 40.3192C151.98 40.3192 151.387 40.817 151.228 41.622ZM158.972 44.8525C158.178 44.8525 157.51 44.5877 156.97 44.0475C156.44 43.5074 156.176 42.8507 156.176 42.0668C156.176 41.2725 156.44 40.6157 156.97 40.0862C157.51 39.546 158.178 39.2812 158.972 39.2812C159.999 39.2812 160.91 39.8108 161.334 40.6475L160.349 41.2195C160.105 40.7111 159.597 40.4039 158.961 40.4039C158.495 40.4039 158.103 40.5628 157.786 40.8805C157.478 41.1983 157.32 41.5902 157.32 42.0668C157.32 42.5435 157.478 42.9354 157.786 43.2532C158.103 43.5709 158.495 43.7298 158.961 43.7298C159.586 43.7298 160.116 43.412 160.37 42.9142L161.355 43.4756C160.9 44.3229 159.999 44.8525 158.972 44.8525ZM164.22 43.2743L165.576 39.4189H166.794L164.76 44.8843C164.262 46.2295 163.351 46.9074 162.176 46.8332V45.7634C162.896 45.8058 163.319 45.4775 163.584 44.7466L163.616 44.6725L161.392 39.4189H162.61L164.22 43.2743Z" fill="#010101"/>
<path d="M81.8873 76.404C82.4753 76.7125 82.832 77.2716 82.832 77.9752C82.832 78.5247 82.6392 78.9874 82.244 79.3536C81.8488 79.7199 81.3764 79.9031 80.8077 79.9031H77.916V73.1556H80.5957C81.1451 73.1556 81.6174 73.3388 81.9933 73.6954C82.3789 74.0521 82.5717 74.4955 82.5717 75.0256C82.5717 75.6136 82.3404 76.0667 81.8873 76.404ZM80.5957 74.1967H79.0245V75.9703H80.5957C81.0873 75.9703 81.4632 75.5847 81.4632 75.0835C81.4632 74.5822 81.0873 74.1967 80.5957 74.1967ZM79.0245 78.862H80.8077C81.3186 78.862 81.7234 78.4476 81.7234 77.9174C81.7234 77.3872 81.3186 76.9728 80.8077 76.9728H79.0245V78.862ZM84.715 74.1677C84.4547 74.428 84.0499 74.428 83.78 74.1677C83.5197 73.8978 83.5197 73.493 83.78 73.2327C84.0402 72.9628 84.4644 72.9628 84.7246 73.2327C84.9849 73.493 84.9849 73.8978 84.715 74.1677ZM84.7728 79.9031H83.7318V75.0835H84.7728V79.9031ZM88.7095 74.9582C89.3746 74.9582 89.9336 75.2088 90.406 75.7004C90.8783 76.192 91.1096 76.7896 91.1096 77.4933C91.1096 78.2066 90.8783 78.8042 90.406 79.2958C89.9336 79.7874 89.3746 80.0284 88.7095 80.0284C87.9769 80.0284 87.4178 79.7585 87.0226 79.2187V81.8309H85.9816V75.0835H87.0226V75.7775C87.4178 75.2281 87.9769 74.9582 88.7095 74.9582ZM87.4564 78.6018C87.7455 78.891 88.1118 79.0355 88.5456 79.0355C88.9794 79.0355 89.3456 78.891 89.6348 78.6018C89.924 78.303 90.0686 77.9367 90.0686 77.4933C90.0686 77.0499 89.924 76.6836 89.6348 76.3944C89.3456 76.0956 88.9794 75.951 88.5456 75.951C88.1118 75.951 87.7455 76.0956 87.4564 76.3944C87.1672 76.6836 87.0226 77.0499 87.0226 77.4933C87.0226 77.9367 87.1672 78.303 87.4564 78.6018ZM91.354 75.0835H95.547V76.0859H93.9759V79.9031H92.9348V76.0859H91.354V75.0835ZM98.3131 78.5921L99.5469 75.0835H100.655L98.8047 80.0573C98.3517 81.2815 97.5227 81.8984 96.4528 81.8309V80.8574C97.1082 80.8959 97.4938 80.5971 97.7348 79.932L97.7637 79.8645L95.7395 75.0835H96.848L98.3131 78.5921ZM104.935 75.7679V75.0835H105.976V79.9031H104.935V79.2091C104.54 79.7585 103.981 80.0284 103.248 80.0284C102.583 80.0284 102.024 79.7874 101.552 79.2958C101.08 78.8042 100.848 78.1969 100.848 77.4933C100.848 76.78 101.08 76.1823 101.552 75.6907C102.024 75.1991 102.583 74.9582 103.248 74.9582C103.981 74.9582 104.54 75.2281 104.935 75.7679ZM102.323 78.6018C102.612 78.891 102.979 79.0355 103.412 79.0355C103.846 79.0355 104.212 78.891 104.501 78.6018C104.791 78.303 104.935 77.9367 104.935 77.4933C104.935 77.0499 104.791 76.6836 104.501 76.3944C104.212 76.0956 103.846 75.951 103.412 75.951C102.979 75.951 102.612 76.0956 102.323 76.3944C102.034 76.6836 101.889 77.0499 101.889 77.4933C101.889 77.9367 102.034 78.303 102.323 78.6018ZM107.566 75.0835H111.257V79.9031H110.216V76.0859H108.607V77.8788C108.607 79.4115 107.913 80.0187 106.679 79.9031V78.9295C107.267 79.0355 107.566 78.7078 107.566 77.8306V75.0835ZM113.454 74.1677C113.193 74.428 112.789 74.428 112.519 74.1677C112.258 73.8978 112.258 73.493 112.519 73.2327C112.779 72.9628 113.203 72.9628 113.463 73.2327C113.724 73.493 113.724 73.8978 113.454 74.1677ZM113.512 79.9031H112.471V75.0835H113.512V79.9031ZM117.429 77.4354C117.94 77.6668 118.2 78.0523 118.2 78.5825C118.2 79.4018 117.496 80.0284 116.301 80.0284C115.328 80.0284 114.672 79.6428 114.335 78.8717L115.183 78.3704C115.357 78.8524 115.732 79.0934 116.311 79.0934C116.851 79.0934 117.178 78.8524 117.178 78.4765C117.178 78.1391 116.918 77.927 116.484 77.927H115.8V77.0113H116.311C116.735 77.0113 116.986 76.7993 116.986 76.4522C116.986 76.1149 116.696 75.8835 116.243 75.8835C115.761 75.8835 115.424 76.0956 115.241 76.5197L114.393 76.0378C114.749 75.3148 115.366 74.9582 116.224 74.9582C116.764 74.9582 117.188 75.0931 117.506 75.3726C117.824 75.6425 117.988 75.9703 117.988 76.3655C117.988 76.8474 117.805 77.2041 117.429 77.4354ZM122.868 75.7679V75.0835H123.909V79.9031H122.868V79.2091C122.472 79.7585 121.913 80.0284 121.181 80.0284C120.516 80.0284 119.957 79.7874 119.484 79.2958C119.012 78.8042 118.781 78.1969 118.781 77.4933C118.781 76.78 119.012 76.1823 119.484 75.6907C119.957 75.1991 120.516 74.9582 121.181 74.9582C121.913 74.9582 122.472 75.2281 122.868 75.7679ZM120.255 78.6018C120.545 78.891 120.911 79.0355 121.345 79.0355C121.778 79.0355 122.145 78.891 122.434 78.6018C122.723 78.303 122.868 77.9367 122.868 77.4933C122.868 77.0499 122.723 76.6836 122.434 76.3944C122.145 76.0956 121.778 75.951 121.345 75.951C120.911 75.951 120.545 76.0956 120.255 76.3944C119.966 76.6836 119.822 77.0499 119.822 77.4933C119.822 77.9367 119.966 78.303 120.255 78.6018ZM129.267 75.0835V78.9199H130.057V81.1947H129.036V79.9031H125.122V75.0835H126.163V78.9199H128.226V75.0835H129.267ZM131.885 74.1677C131.625 74.428 131.22 74.428 130.95 74.1677C130.69 73.8978 130.69 73.493 130.95 73.2327C131.21 72.9628 131.634 72.9628 131.895 73.2327C132.155 73.493 132.155 73.8978 131.885 74.1677ZM131.943 79.9031H130.902V75.0835H131.943V79.9031ZM134.732 75.0835H136.882V79.9031H135.86V78.2837H135.282L134.058 79.9031H132.833L134.135 78.1873C133.47 77.9656 133.026 77.368 133.026 76.6836C133.026 76.2402 133.18 75.8642 133.499 75.5558C133.817 75.2377 134.231 75.0835 134.732 75.0835ZM134.79 77.3872H135.86V76.0281H134.79C134.366 76.0281 134.048 76.2884 134.048 76.7125C134.048 77.127 134.366 77.3872 134.79 77.3872ZM144.745 75.0835V78.9199H145.39V81.1947H144.369V79.9031H141.062V81.1947H140.041V78.9199H140.629C140.927 78.5054 141.072 77.9174 141.072 77.1752V75.0835H144.745ZM141.776 78.9199H143.723V76.0378H142.094V77.1752C142.094 77.8596 141.988 78.4476 141.776 78.9199ZM146.612 75.0835H150.304V79.9031H149.263V76.0859H147.653V77.8788C147.653 79.4115 146.959 80.0187 145.725 79.9031V78.9295C146.313 79.0355 146.612 78.7078 146.612 77.8306V75.0835ZM153.098 75.0835H155.247V79.9031H154.226V78.2837H153.647L152.423 79.9031H151.199L152.5 78.1873C151.835 77.9656 151.392 77.368 151.392 76.6836C151.392 76.2402 151.546 75.8642 151.864 75.5558C152.182 75.2377 152.596 75.0835 153.098 75.0835ZM153.156 77.3872H154.226V76.0281H153.156C152.731 76.0281 152.413 76.2884 152.413 76.7125C152.413 77.127 152.731 77.3872 153.156 77.3872ZM161.144 80.0284C160.421 80.0284 159.813 79.7874 159.322 79.2958C158.84 78.8042 158.599 78.2066 158.599 77.4933C158.599 76.7703 158.84 76.1727 159.322 75.6907C159.813 75.1991 160.421 74.9582 161.144 74.9582C162.079 74.9582 162.907 75.4401 163.293 76.2016L162.397 76.7221C162.175 76.2595 161.712 75.9799 161.134 75.9799C160.71 75.9799 160.353 76.1245 160.064 76.4137C159.784 76.7029 159.64 77.0595 159.64 77.4933C159.64 77.927 159.784 78.2837 160.064 78.5729C160.353 78.862 160.71 79.0066 161.134 79.0066C161.703 79.0066 162.185 78.7175 162.416 78.2644L163.312 78.7753C162.898 79.5464 162.079 80.0284 161.144 80.0284ZM168.645 77.9367H164.809C164.963 78.6693 165.551 79.0741 166.351 79.0741C166.901 79.0741 167.315 78.8717 167.595 78.4765L168.452 78.9777C167.98 79.6814 167.276 80.0284 166.341 80.0284C165.561 80.0284 164.924 79.7874 164.443 79.3151C163.961 78.8331 163.72 78.2259 163.72 77.4933C163.72 76.7703 163.961 76.1727 164.433 75.6907C164.905 75.1991 165.522 74.9582 166.264 74.9582C166.968 74.9582 167.546 75.2088 167.999 75.7004C168.452 76.192 168.684 76.7993 168.684 77.5029C168.684 77.6089 168.674 77.7535 168.645 77.9367ZM164.799 77.0884H167.633C167.489 76.3077 166.939 75.9028 166.255 75.9028C165.484 75.9028 164.944 76.3558 164.799 77.0884ZM172.328 74.9582C172.993 74.9582 173.552 75.2088 174.024 75.7004C174.497 76.192 174.728 76.7896 174.728 77.4933C174.728 78.2066 174.497 78.8042 174.024 79.2958C173.552 79.7874 172.993 80.0284 172.328 80.0284C171.595 80.0284 171.036 79.7585 170.641 79.2187V81.8309H169.6V75.0835H170.641V75.7775C171.036 75.2281 171.595 74.9582 172.328 74.9582ZM171.075 78.6018C171.364 78.891 171.73 79.0355 172.164 79.0355C172.598 79.0355 172.964 78.891 173.253 78.6018C173.542 78.303 173.687 77.9367 173.687 77.4933C173.687 77.0499 173.542 76.6836 173.253 76.3944C172.964 76.0956 172.598 75.951 172.164 75.951C171.73 75.951 171.364 76.0956 171.075 76.3944C170.785 76.6836 170.641 77.0499 170.641 77.4933C170.641 77.9367 170.785 78.303 171.075 78.6018ZM179.007 77.4258C179.479 77.6475 179.72 78.0138 179.72 78.5343C179.72 79.344 179.151 79.9031 178.139 79.9031H175.671V75.0835H177.946C178.939 75.0835 179.508 75.6329 179.508 76.4137C179.508 76.8667 179.344 77.2041 179.007 77.4258ZM177.869 75.9703H176.664V77.0402H177.869C178.293 77.0402 178.505 76.8571 178.505 76.5004C178.505 76.1438 178.293 75.9703 177.869 75.9703ZM176.664 78.997H178.043C178.476 78.997 178.698 78.8042 178.698 78.4283C178.698 78.0909 178.457 77.8981 178.043 77.8981H176.664V78.997ZM185.222 77.9367H181.386C181.54 78.6693 182.128 79.0741 182.928 79.0741C183.477 79.0741 183.892 78.8717 184.171 78.4765L185.029 78.9777C184.557 79.6814 183.853 80.0284 182.918 80.0284C182.137 80.0284 181.501 79.7874 181.019 79.3151C180.537 78.8331 180.296 78.2259 180.296 77.4933C180.296 76.7703 180.537 76.1727 181.01 75.6907C181.482 75.1991 182.099 74.9582 182.841 74.9582C183.545 74.9582 184.123 75.2088 184.576 75.7004C185.029 76.192 185.261 76.7993 185.261 77.5029C185.261 77.6089 185.251 77.7535 185.222 77.9367ZM181.376 77.0884H184.21C184.065 76.3077 183.516 75.9028 182.832 75.9028C182.06 75.9028 181.521 76.3558 181.376 77.0884ZM188.905 74.9582C189.57 74.9582 190.129 75.2088 190.601 75.7004C191.073 76.192 191.305 76.7896 191.305 77.4933C191.305 78.2066 191.073 78.8042 190.601 79.2958C190.129 79.7874 189.57 80.0284 188.905 80.0284C188.172 80.0284 187.613 79.7585 187.218 79.2187V81.8309H186.177V75.0835H187.218V75.7775C187.613 75.2281 188.172 74.9582 188.905 74.9582ZM187.651 78.6018C187.941 78.891 188.307 79.0355 188.741 79.0355C189.174 79.0355 189.541 78.891 189.83 78.6018C190.119 78.303 190.264 77.9367 190.264 77.4933C190.264 77.0499 190.119 76.6836 189.83 76.3944C189.541 76.0956 189.174 75.951 188.741 75.951C188.307 75.951 187.941 76.0956 187.651 76.3944C187.362 76.6836 187.218 77.0499 187.218 77.4933C187.218 77.9367 187.362 78.303 187.651 78.6018ZM193.231 74.1677C192.971 74.428 192.566 74.428 192.296 74.1677C192.036 73.8978 192.036 73.493 192.296 73.2327C192.557 72.9628 192.981 72.9628 193.241 73.2327C193.501 73.493 193.501 73.8978 193.231 74.1677ZM193.289 79.9031H192.248V75.0835H193.289V79.9031ZM197.833 77.4258C198.305 77.6475 198.546 78.0138 198.546 78.5343C198.546 79.344 197.978 79.9031 196.966 79.9031H194.498V75.0835H196.773C197.766 75.0835 198.334 75.6329 198.334 76.4137C198.334 76.8667 198.171 77.2041 197.833 77.4258ZM196.696 75.9703H195.491V77.0402H196.696C197.12 77.0402 197.332 76.8571 197.332 76.5004C197.332 76.1438 197.12 75.9703 196.696 75.9703ZM195.491 78.997H196.869C197.303 78.997 197.525 78.8042 197.525 78.4283C197.525 78.0909 197.284 77.8981 196.869 77.8981H195.491V78.997Z" fill="#010101"/>
<path d="M77.9164 121.859H80.4034C81.0395 121.859 81.5697 122.071 81.9938 122.495C82.4276 122.919 82.6397 123.449 82.6397 124.076C82.6397 124.703 82.4276 125.223 81.9938 125.657C81.5697 126.081 81.0395 126.293 80.4034 126.293H79.025V128.606H77.9164V121.859ZM79.025 125.252H80.4034C81.0588 125.252 81.5311 124.76 81.5311 124.076C81.5311 123.392 81.0588 122.9 80.4034 122.9H79.025V125.252ZM87.8515 126.64H84.0151C84.1693 127.373 84.7573 127.777 85.5573 127.777C86.1068 127.777 86.5212 127.575 86.8008 127.18L87.6587 127.681C87.1864 128.385 86.4827 128.732 85.5477 128.732C84.7669 128.732 84.1307 128.491 83.6488 128.018C83.1668 127.536 82.9258 126.929 82.9258 126.197C82.9258 125.474 83.1668 124.876 83.6391 124.394C84.1114 123.903 84.7284 123.662 85.4706 123.662C86.1742 123.662 86.7526 123.912 87.2056 124.404C87.6587 124.895 87.89 125.503 87.89 126.206C87.89 126.312 87.8804 126.457 87.8515 126.64ZM84.0054 125.792H86.8393C86.6948 125.011 86.1453 124.606 85.4609 124.606C84.6898 124.606 84.15 125.059 84.0054 125.792ZM91.4205 126.139C91.9314 126.37 92.1917 126.756 92.1917 127.286C92.1917 128.105 91.488 128.732 90.2927 128.732C89.3192 128.732 88.6637 128.346 88.3263 127.575L89.1746 127.074C89.3481 127.556 89.724 127.797 90.3024 127.797C90.8422 127.797 91.1699 127.556 91.1699 127.18C91.1699 126.842 90.9096 126.63 90.4759 126.63H89.7915V125.715H90.3024C90.7265 125.715 90.9771 125.503 90.9771 125.156C90.9771 124.818 90.6879 124.587 90.2349 124.587C89.7529 124.587 89.4156 124.799 89.2324 125.223L88.3842 124.741C88.7408 124.018 89.3577 123.662 90.2156 123.662C90.7554 123.662 91.1795 123.796 91.4976 124.076C91.8157 124.346 91.9796 124.674 91.9796 125.069C91.9796 125.551 91.7965 125.907 91.4205 126.139ZM97.6978 126.64H93.8614C94.0156 127.373 94.6036 127.777 95.4036 127.777C95.9531 127.777 96.3675 127.575 96.6471 127.18L97.505 127.681C97.0327 128.385 96.329 128.732 95.394 128.732C94.6132 128.732 93.977 128.491 93.4951 128.018C93.0131 127.536 92.7721 126.929 92.7721 126.197C92.7721 125.474 93.0131 124.876 93.4854 124.394C93.9577 123.903 94.5747 123.662 95.3169 123.662C96.0205 123.662 96.5989 123.912 97.0519 124.404C97.505 124.895 97.7363 125.503 97.7363 126.206C97.7363 126.312 97.7267 126.457 97.6978 126.64ZM93.8517 125.792H96.6856C96.5411 125.011 95.9916 124.606 95.3072 124.606C94.5361 124.606 93.9963 125.059 93.8517 125.792ZM101.38 123.662C102.045 123.662 102.604 123.912 103.077 124.404C103.549 124.895 103.78 125.493 103.78 126.197C103.78 126.91 103.549 127.508 103.077 127.999C102.604 128.491 102.045 128.732 101.38 128.732C100.648 128.732 100.089 128.462 99.6934 127.922V130.534H98.6523V123.787H99.6934V124.481C100.089 123.931 100.648 123.662 101.38 123.662ZM100.127 127.305C100.416 127.594 100.783 127.739 101.216 127.739C101.65 127.739 102.016 127.594 102.306 127.305C102.595 127.006 102.739 126.64 102.739 126.197C102.739 125.753 102.595 125.387 102.306 125.098C102.016 124.799 101.65 124.654 101.216 124.654C100.783 124.654 100.416 124.799 100.127 125.098C99.838 125.387 99.6934 125.753 99.6934 126.197C99.6934 126.64 99.838 127.006 100.127 127.305ZM108.059 126.129C108.531 126.351 108.772 126.717 108.772 127.238C108.772 128.047 108.204 128.606 107.192 128.606H104.724V123.787H106.999C107.992 123.787 108.56 124.336 108.56 125.117C108.56 125.57 108.396 125.907 108.059 126.129ZM106.922 124.674H105.717V125.744H106.922C107.346 125.744 107.558 125.56 107.558 125.204C107.558 124.847 107.346 124.674 106.922 124.674ZM105.717 127.7H107.095C107.529 127.7 107.751 127.508 107.751 127.132C107.751 126.794 107.51 126.601 107.095 126.601H105.717V127.7ZM111.445 127.296L112.679 123.787H113.787L111.937 128.761C111.484 129.985 110.655 130.602 109.585 130.534V129.561C110.24 129.599 110.626 129.3 110.867 128.635L110.896 128.568L108.871 123.787H109.98L111.445 127.296ZM117.774 126.129C118.246 126.351 118.487 126.717 118.487 127.238C118.487 128.047 117.918 128.606 116.906 128.606H114.438V123.787H116.713C117.706 123.787 118.275 124.336 118.275 125.117C118.275 125.57 118.111 125.907 117.774 126.129ZM116.636 124.674H115.431V125.744H116.636C117.06 125.744 117.272 125.56 117.272 125.204C117.272 124.847 117.06 124.674 116.636 124.674ZM115.431 127.7H116.81C117.243 127.7 117.465 127.508 117.465 127.132C117.465 126.794 117.224 126.601 116.81 126.601H115.431V127.7ZM123.15 124.471V123.787H124.191V128.606H123.15V127.912C122.755 128.462 122.196 128.732 121.464 128.732C120.798 128.732 120.239 128.491 119.767 127.999C119.295 127.508 119.063 126.9 119.063 126.197C119.063 125.483 119.295 124.886 119.767 124.394C120.239 123.903 120.798 123.662 121.464 123.662C122.196 123.662 122.755 123.931 123.15 124.471ZM120.538 127.305C120.827 127.594 121.194 127.739 121.627 127.739C122.061 127.739 122.428 127.594 122.717 127.305C123.006 127.006 123.15 126.64 123.15 126.197C123.15 125.753 123.006 125.387 122.717 125.098C122.428 124.799 122.061 124.654 121.627 124.654C121.194 124.654 120.827 124.799 120.538 125.098C120.249 125.387 120.104 125.753 120.104 126.197C120.104 126.64 120.249 127.006 120.538 127.305ZM128.653 125.705V123.787H129.694V128.606H128.653V126.688H126.446V128.606H125.405V123.787H126.446V125.705H128.653ZM134.151 125.705V123.787H135.192V128.606H134.151V126.688H131.943V128.606H130.902V123.787H131.943V125.705H134.151ZM137.98 123.787H140.13V128.606H139.108V126.987H138.53L137.306 128.606H136.082L137.383 126.891C136.718 126.669 136.274 126.071 136.274 125.387C136.274 124.944 136.429 124.568 136.747 124.259C137.065 123.941 137.479 123.787 137.98 123.787ZM138.038 126.091H139.108V124.731H138.038C137.614 124.731 137.296 124.992 137.296 125.416C137.296 125.83 137.614 126.091 138.038 126.091ZM147.993 123.787V127.623H148.638V129.898H147.617V128.606H144.31V129.898H143.289V127.623H143.877C144.176 127.209 144.32 126.621 144.32 125.879V123.787H147.993ZM145.024 127.623H146.971V124.741H145.342V125.879C145.342 126.563 145.236 127.151 145.024 127.623ZM153.113 124.471V123.787H154.154V128.606H153.113V127.912C152.718 128.462 152.159 128.732 151.426 128.732C150.761 128.732 150.202 128.491 149.73 127.999C149.257 127.508 149.026 126.9 149.026 126.197C149.026 125.483 149.257 124.886 149.73 124.394C150.202 123.903 150.761 123.662 151.426 123.662C152.159 123.662 152.718 123.931 153.113 124.471ZM150.501 127.305C150.79 127.594 151.156 127.739 151.59 127.739C152.024 127.739 152.39 127.594 152.679 127.305C152.968 127.006 153.113 126.64 153.113 126.197C153.113 125.753 152.968 125.387 152.679 125.098C152.39 124.799 152.024 124.654 151.59 124.654C151.156 124.654 150.79 124.799 150.501 125.098C150.212 125.387 150.067 125.753 150.067 126.197C150.067 126.64 150.212 127.006 150.501 127.305ZM158.616 125.705V123.787H159.657V128.606H158.616V126.688H156.408V128.606H155.367V123.787H156.408V125.705H158.616ZM161.887 126.842L164.354 123.787H165.154V128.606H164.132V125.541L161.665 128.606H160.865V123.787H161.887V126.842ZM168.868 126.139L170.671 128.606H169.466L168.271 126.958L167.066 128.606H165.851L167.663 126.129L165.948 123.787H167.153L168.261 125.31L169.37 123.787H170.584L168.868 126.139Z" fill="#010101"/>
<path d="M83.1891 168.128H84.3747V174.875H83.2662V170.066L81.2131 173.459H81.0781L79.025 170.056V174.875H77.9164V168.128H79.1117L81.1456 171.502L83.1891 168.128ZM87.9274 175.001C87.2238 175.001 86.6165 174.76 86.1249 174.268C85.6333 173.777 85.3827 173.179 85.3827 172.466C85.3827 171.752 85.6333 171.155 86.1249 170.663C86.6165 170.172 87.2238 169.931 87.9274 169.931C88.6407 169.931 89.2384 170.172 89.73 170.663C90.2216 171.155 90.4722 171.752 90.4722 172.466C90.4722 173.179 90.2216 173.777 89.73 174.268C89.2384 174.76 88.6407 175.001 87.9274 175.001ZM86.8575 173.555C87.1467 173.844 87.5033 173.989 87.9274 173.989C88.3516 173.989 88.7082 173.844 88.9974 173.555C89.2866 173.266 89.4312 172.899 89.4312 172.466C89.4312 172.032 89.2866 171.666 88.9974 171.376C88.7082 171.087 88.3516 170.943 87.9274 170.943C87.5033 170.943 87.1467 171.087 86.8575 171.376C86.5683 171.666 86.4237 172.032 86.4237 172.466C86.4237 172.899 86.5683 173.266 86.8575 173.555ZM94.6619 171.974V170.056H95.703V174.875H94.6619V172.957H92.4546V174.875H91.4135V170.056H92.4546V171.974H94.6619ZM97.8941 169.14C97.6338 169.4 97.229 169.4 96.9591 169.14C96.6988 168.87 96.6988 168.465 96.9591 168.205C97.2193 167.935 97.6435 167.935 97.9037 168.205C98.164 168.465 98.164 168.87 97.8941 169.14ZM97.9519 174.875H96.9109V170.056H97.9519V174.875ZM98.6498 170.056H102.843V171.058H101.272V174.875H100.231V171.058H98.6498V170.056ZM105.634 175.001C104.93 175.001 104.323 174.76 103.831 174.268C103.34 173.777 103.089 173.179 103.089 172.466C103.089 171.752 103.34 171.155 103.831 170.663C104.323 170.172 104.93 169.931 105.634 169.931C106.347 169.931 106.945 170.172 107.436 170.663C107.928 171.155 108.179 171.752 108.179 172.466C108.179 173.179 107.928 173.777 107.436 174.268C106.945 174.76 106.347 175.001 105.634 175.001ZM104.564 173.555C104.853 173.844 105.21 173.989 105.634 173.989C106.058 173.989 106.415 173.844 106.704 173.555C106.993 173.266 107.138 172.899 107.138 172.466C107.138 172.032 106.993 171.666 106.704 171.376C106.415 171.087 106.058 170.943 105.634 170.943C105.21 170.943 104.853 171.087 104.564 171.376C104.275 171.666 104.13 172.032 104.13 172.466C104.13 172.899 104.275 173.266 104.564 173.555ZM111.848 169.931C112.513 169.931 113.072 170.181 113.544 170.673C114.017 171.164 114.248 171.762 114.248 172.466C114.248 173.179 114.017 173.777 113.544 174.268C113.072 174.76 112.513 175.001 111.848 175.001C111.115 175.001 110.556 174.731 110.161 174.191V176.803H109.12V170.056H110.161V170.75C110.556 170.2 111.115 169.931 111.848 169.931ZM110.595 173.574C110.884 173.863 111.25 174.008 111.684 174.008C112.118 174.008 112.484 173.863 112.773 173.574C113.062 173.275 113.207 172.909 113.207 172.466C113.207 172.022 113.062 171.656 112.773 171.367C112.484 171.068 112.118 170.923 111.684 170.923C111.25 170.923 110.884 171.068 110.595 171.367C110.306 171.656 110.161 172.022 110.161 172.466C110.161 172.909 110.306 173.275 110.595 173.574ZM116.213 173.112L118.681 170.056H119.481V174.875H118.459V171.81L115.992 174.875H115.191V170.056H116.213V173.112ZM123.937 171.974V170.056H124.978V174.875H123.937V172.957H121.73V174.875H120.689V170.056H121.73V171.974H123.937ZM126.186 170.056H129.415V171.058H127.227V174.875H126.186V170.056Z" fill="#010101"/>
<path d="M101.692 99.2543H82.827C79.6598 99.2543 77.0435 96.6376 77.0435 93.4705C77.0435 90.3033 79.6598 87.687 82.827 87.687H101.692C104.859 87.687 107.476 90.3033 107.476 93.4705C107.476 96.7753 104.859 99.2543 101.692 99.2543Z" fill="#73B849"/>
<path d="M110.781 146.762H82.6893C79.6598 146.762 77.0435 144.283 77.0435 141.116C77.0435 138.086 79.5221 135.47 82.6893 135.47H110.781C113.81 135.47 116.427 137.949 116.427 141.116C116.427 144.283 113.948 146.762 110.781 146.762Z" fill="#58A3DA"/>
<path d="M101.692 194.682H82.827C79.6598 194.682 77.0435 192.065 77.0435 188.898C77.0435 185.731 79.6598 183.115 82.827 183.115H101.692C104.859 183.115 107.476 185.731 107.476 188.898C107.476 192.065 104.859 194.682 101.692 194.682Z" fill="#73B849"/>
<path d="M84.8539 95.1499H84.2373L83.8822 94.1719H81.92L81.565 95.1499H80.9483L82.5741 90.7895H83.2281L84.8539 95.1499ZM82.898 91.4809L82.1193 93.63H83.6829L82.898 91.4809ZM86.4086 93.5428L87.9472 95.1499H87.2744L85.8542 93.6736V95.1499H85.3123V92.0353H85.8542V93.412L87.1997 92.0353H87.8974L86.4086 93.5428ZM88.1023 92.0353H90.7684V92.5586H89.7094V95.1499H89.1675V92.5586H88.1023V92.0353ZM91.779 94.2218L93.5045 92.0353H93.9405V95.1499H93.4048V92.9635L91.6794 95.1499H91.2433V92.0353H91.779V94.2218ZM96.8398 93.549C97.1574 93.6798 97.3194 93.9228 97.3194 94.2716C97.3194 94.7886 96.9643 95.1499 96.3227 95.1499H94.7655V92.0353H96.1982C96.8211 92.0353 97.1761 92.3779 97.1761 92.8825C97.1761 93.1815 97.064 93.4057 96.8398 93.549ZM96.1732 92.5212H95.2949V93.3372H96.1732C96.4909 93.3372 96.6467 93.2002 96.6467 92.9199C96.6467 92.652 96.4909 92.5212 96.1732 92.5212ZM95.2949 94.6578H96.2916C96.6093 94.6578 96.7837 94.5021 96.7837 94.228C96.7837 93.9726 96.6093 93.8169 96.2916 93.8169H95.2949V94.6578ZM100.06 93.331V92.0353H100.602V95.1499H100.06V93.848H98.4463V95.1499H97.9044V92.0353H98.4463V93.331H100.06ZM104.055 94.7575C103.738 95.0752 103.345 95.2309 102.89 95.2309C102.436 95.2309 102.043 95.0752 101.725 94.7575C101.408 94.4398 101.252 94.0536 101.252 93.5926C101.252 93.1317 101.408 92.7455 101.725 92.4278C102.043 92.1101 102.436 91.9544 102.89 91.9544C103.345 91.9544 103.738 92.1101 104.055 92.4278C104.373 92.7455 104.535 93.1317 104.535 93.5926C104.535 94.0536 104.373 94.4398 104.055 94.7575ZM102.89 94.7014C103.202 94.7014 103.463 94.5955 103.675 94.3837C103.887 94.1719 103.993 93.9103 103.993 93.5926C103.993 93.2749 103.887 93.0133 103.675 92.8015C103.463 92.5897 103.202 92.4838 102.89 92.4838C102.585 92.4838 102.323 92.5897 102.112 92.8015C101.9 93.0133 101.794 93.2749 101.794 93.5926C101.794 93.9103 101.9 94.1719 102.112 94.3837C102.323 94.5955 102.585 94.7014 102.89 94.7014Z" fill="white"/>
<path d="M84.9037 190.46H84.2871L83.932 189.482H81.9698L81.6148 190.46H80.9981L82.6239 186.099H83.2779L84.9037 190.46ZM82.9478 186.791L82.1692 188.94H83.7327L82.9478 186.791ZM86.4584 188.853L87.997 190.46H87.3242L85.904 188.983V190.46H85.3621V187.345H85.904V188.722L87.2495 187.345H87.9472L86.4584 188.853ZM88.1521 187.345H90.8182V187.868H89.7593V190.46H89.2173V187.868H88.1521V187.345ZM91.8288 189.532L93.5543 187.345H93.9903V190.46H93.4546V188.273L91.7292 190.46H91.2931V187.345H91.8288V189.532ZM96.8896 188.859C97.2073 188.99 97.3692 189.233 97.3692 189.581C97.3692 190.098 97.0141 190.46 96.3725 190.46H94.8153V187.345H96.248C96.8709 187.345 97.2259 187.688 97.2259 188.192C97.2259 188.491 97.1138 188.716 96.8896 188.859ZM96.223 187.831H95.3447V188.647H96.223C96.5407 188.647 96.6965 188.51 96.6965 188.23C96.6965 187.962 96.5407 187.831 96.223 187.831ZM95.3447 189.968H96.3414C96.6591 189.968 96.8335 189.812 96.8335 189.538C96.8335 189.282 96.6591 189.127 96.3414 189.127H95.3447V189.968ZM100.109 188.641V187.345H100.651V190.46H100.109V189.158H98.4961V190.46H97.9542V187.345H98.4961V188.641H100.109ZM104.105 190.067C103.787 190.385 103.395 190.541 102.94 190.541C102.485 190.541 102.093 190.385 101.775 190.067C101.458 189.75 101.302 189.363 101.302 188.902C101.302 188.441 101.458 188.055 101.775 187.738C102.093 187.42 102.485 187.264 102.94 187.264C103.395 187.264 103.787 187.42 104.105 187.738C104.423 188.055 104.585 188.441 104.585 188.902C104.585 189.363 104.423 189.75 104.105 190.067ZM102.94 190.011C103.252 190.011 103.513 189.905 103.725 189.694C103.937 189.482 104.043 189.22 104.043 188.902C104.043 188.585 103.937 188.323 103.725 188.111C103.513 187.9 103.252 187.794 102.94 187.794C102.635 187.794 102.373 187.9 102.162 188.111C101.95 188.323 101.844 188.585 101.844 188.902C101.844 189.22 101.95 189.482 102.162 189.694C102.373 189.905 102.635 190.011 102.94 190.011Z" fill="white"/>
<path d="M87.6019 140.499C88.0006 140.692 88.256 141.059 88.256 141.527C88.256 141.875 88.1314 142.168 87.8884 142.405C87.6455 142.642 87.3465 142.76 86.9914 142.76H85.1103V138.4H86.8544C87.197 138.4 87.4836 138.512 87.7203 138.742C87.957 138.973 88.0753 139.253 88.0753 139.589C88.0753 139.976 87.9196 140.281 87.6019 140.499ZM86.8544 138.942H85.6896V140.275H86.8544C87.2219 140.275 87.5022 139.982 87.5022 139.608C87.5022 139.427 87.4399 139.272 87.3091 139.141C87.1846 139.01 87.0351 138.942 86.8544 138.942ZM85.6896 142.218H86.9914C87.3839 142.218 87.6829 141.907 87.6829 141.508C87.6829 141.315 87.6144 141.147 87.4773 141.01C87.3465 140.873 87.1846 140.804 86.9914 140.804H85.6896V142.218ZM92.1631 139.564C92.5991 139.564 92.9729 139.726 93.2781 140.044C93.5833 140.362 93.7391 140.748 93.7391 141.203C93.7391 141.657 93.5833 142.05 93.2781 142.368C92.9729 142.685 92.5991 142.841 92.1631 142.841C91.6461 142.841 91.2536 142.635 90.9858 142.224V144.006H90.4438V139.645H90.9858V140.181C91.2536 139.77 91.6461 139.564 92.1631 139.564ZM92.0946 142.318C92.406 142.318 92.6676 142.212 92.8794 142C93.0912 141.782 93.1971 141.52 93.1971 141.203C93.1971 140.885 93.0912 140.623 92.8794 140.412C92.6676 140.194 92.406 140.088 92.0946 140.088C91.7769 140.088 91.5153 140.194 91.3035 140.412C91.0917 140.623 90.9858 140.885 90.9858 141.203C90.9858 141.52 91.0917 141.782 91.3035 142C91.5153 142.212 91.7769 142.318 92.0946 142.318ZM97.0144 142.368C96.6967 142.685 96.3043 142.841 95.8496 142.841C95.3948 142.841 95.0024 142.685 94.6847 142.368C94.367 142.05 94.2113 141.664 94.2113 141.203C94.2113 140.742 94.367 140.356 94.6847 140.038C95.0024 139.72 95.3948 139.564 95.8496 139.564C96.3043 139.564 96.6967 139.72 97.0144 140.038C97.3321 140.356 97.4941 140.742 97.4941 141.203C97.4941 141.664 97.3321 142.05 97.0144 142.368ZM95.8496 142.312C96.161 142.312 96.4226 142.206 96.6344 141.994C96.8462 141.782 96.9521 141.52 96.9521 141.203C96.9521 140.885 96.8462 140.623 96.6344 140.412C96.4226 140.2 96.161 140.094 95.8496 140.094C95.5443 140.094 95.2827 140.2 95.0709 140.412C94.8591 140.623 94.7532 140.885 94.7532 141.203C94.7532 141.52 94.8591 141.782 95.0709 141.994C95.2827 142.206 95.5443 142.312 95.8496 142.312ZM99.5469 142.841C99.086 142.841 98.706 142.691 98.407 142.386C98.108 142.081 97.9585 141.695 97.9585 141.215C97.9585 140.686 98.0333 140.275 98.189 139.988C98.3447 139.702 98.6686 139.44 99.1483 139.209C99.2355 139.166 99.3538 139.116 99.5033 139.047L99.8397 138.898C100.076 138.78 100.344 138.58 100.369 138.3L100.805 138.549C100.78 138.68 100.743 138.792 100.662 138.898C100.587 138.998 100.556 139.06 100.413 139.153C100.282 139.234 100.263 139.259 100.083 139.34C99.9954 139.384 99.9332 139.409 99.902 139.427L99.6964 139.515L99.4971 139.596C98.9303 139.839 98.7122 140.057 98.5939 140.437C98.8617 140.106 99.2916 139.951 99.6902 139.951C100.083 139.951 100.413 140.081 100.681 140.349C100.955 140.617 101.092 140.96 101.092 141.377C101.092 141.801 100.949 142.15 100.656 142.43C100.363 142.704 99.9954 142.841 99.5469 142.841ZM100.55 141.377C100.55 140.823 100.157 140.43 99.5656 140.43C99.2978 140.43 99.0611 140.518 98.8431 140.686C98.6313 140.854 98.5254 141.072 98.5254 141.346C98.5254 141.626 98.625 141.863 98.8181 142.044C99.0112 142.224 99.2542 142.318 99.5469 142.318C99.8397 142.318 100.076 142.231 100.263 142.05C100.456 141.869 100.55 141.645 100.55 141.377ZM104.296 142.368C103.978 142.685 103.586 142.841 103.131 142.841C102.676 142.841 102.284 142.685 101.966 142.368C101.649 142.05 101.493 141.664 101.493 141.203C101.493 140.742 101.649 140.356 101.966 140.038C102.284 139.72 102.676 139.564 103.131 139.564C103.586 139.564 103.978 139.72 104.296 140.038C104.614 140.356 104.776 140.742 104.776 141.203C104.776 141.664 104.614 142.05 104.296 142.368ZM103.131 142.312C103.443 142.312 103.704 142.206 103.916 141.994C104.128 141.782 104.234 141.52 104.234 141.203C104.234 140.885 104.128 140.623 103.916 140.412C103.704 140.2 103.443 140.094 103.131 140.094C102.826 140.094 102.564 140.2 102.352 140.412C102.141 140.623 102.035 140.885 102.035 141.203C102.035 141.52 102.141 141.782 102.352 141.994C102.564 142.206 102.826 142.312 103.131 142.312ZM104.944 139.645H107.61V140.169H106.551V142.76H106.009V140.169H104.944V139.645ZM108.359 139.079C108.153 139.079 107.992 138.917 107.992 138.717C107.992 138.518 108.153 138.35 108.359 138.35C108.558 138.35 108.72 138.518 108.72 138.717C108.72 138.917 108.558 139.079 108.359 139.079ZM108.627 142.76H108.085V139.645H108.627V142.76Z" fill="white"/>
</svg>
