<svg width="264" height="225" viewBox="0 0 264 225" fill="none" xmlns="http://www.w3.org/2000/svg">
<path d="M131.339 221.673C201.914 221.673 259.127 216.864 259.127 210.932C259.127 205 201.914 200.191 131.339 200.191C60.7631 200.191 3.55029 205 3.55029 210.932C3.55029 216.864 60.7631 221.673 131.339 221.673Z" fill="#848AC3"/>
<path d="M245.77 224.289H17.0454C7.95696 224.289 0.520996 216.853 0.520996 207.764V17.4589C0.520996 8.37053 7.95696 0.93457 17.0454 0.93457H245.77C254.858 0.93457 262.294 8.37053 262.294 17.4589V207.764C262.294 216.853 254.858 224.289 245.77 224.289Z" fill="#070507"/>
<mask id="mask0_346_298" style="mask-type:luminance" maskUnits="userSpaceOnUse" x="0" y="0" width="263" height="225">
<path d="M17.0454 224.289H245.77C254.858 224.289 262.294 216.853 262.294 207.764V17.4589C262.294 8.37053 254.858 0.93457 245.77 0.93457H17.0454C7.95696 0.93457 0.520996 8.37053 0.520996 17.4589V207.764C0.520996 216.853 7.95696 224.289 17.0454 224.289Z" fill="white"/>
</mask>
<g mask="url(#mask0_346_298)">
<path opacity="0.51" d="M259.679 680.223C422.504 680.223 554.501 548.227 554.501 385.401C554.501 222.575 422.504 90.5791 259.679 90.5791C96.8528 90.5791 -35.1436 222.575 -35.1436 385.401C-35.1436 548.227 96.8528 680.223 259.679 680.223Z" fill="url(#paint0_radial_346_298)"/>
</g>
<path d="M212.308 162.873H44.5854C35.497 162.873 28.061 155.437 28.061 146.348V78.3229C28.061 69.2345 35.497 61.7986 44.5854 61.7986H212.308C221.396 61.7986 228.832 69.2345 228.832 78.3229V146.348C228.832 155.437 221.396 162.873 212.308 162.873Z" fill="white"/>
<path d="M42.6576 61.7986H214.235C222.222 61.7986 228.832 68.4085 228.832 76.3952V90.9919H28.061V76.3952C28.061 68.4085 34.6708 61.7986 42.6576 61.7986Z" fill="#F4F6F8"/>
<path d="M223.737 174.716H169.482C160.394 174.716 152.958 167.28 152.958 158.191V141.805C152.958 132.716 160.394 125.28 169.482 125.28H223.737C232.826 125.28 240.262 132.716 240.262 141.805V158.191C240.262 167.28 232.826 174.716 223.737 174.716Z" fill="#58A3DA"/>
<path d="M190.414 80.8019C192.847 80.8019 194.82 78.8291 194.82 76.3954C194.82 73.9618 192.847 71.989 190.414 71.989C187.98 71.989 186.007 73.9618 186.007 76.3954C186.007 78.8291 187.98 80.8019 190.414 80.8019Z" fill="#73B849"/>
<path d="M201.568 80.8022C204.001 80.8022 205.974 78.8294 205.974 76.3958C205.974 73.9622 204.001 71.9894 201.568 71.9894C199.134 71.9894 197.161 73.9622 197.161 76.3958C197.161 78.8294 199.134 80.8022 201.568 80.8022Z" fill="#F8C43E"/>
<path d="M212.584 80.8022C215.017 80.8022 216.99 78.8294 216.99 76.3958C216.99 73.9622 215.017 71.9894 212.584 71.9894C210.15 71.9894 208.177 73.9622 208.177 76.3958C208.177 78.8294 210.15 80.8022 212.584 80.8022Z" fill="#E73F1D"/>
<path d="M51.3053 107.226C52.1452 107.667 52.6547 108.466 52.6547 109.471C52.6547 110.256 52.3793 110.917 51.8148 111.44C51.2502 111.963 50.5754 112.225 49.763 112.225H45.6319V102.586H49.46C50.2449 102.586 50.9197 102.848 51.4567 103.357C52.0075 103.867 52.2829 104.5 52.2829 105.257C52.2829 106.097 51.9525 106.745 51.3053 107.226ZM49.46 104.073H47.2155V106.607H49.46C50.1623 106.607 50.6994 106.056 50.6994 105.34C50.6994 104.624 50.1623 104.073 49.46 104.073ZM47.2155 110.738H49.763C50.4928 110.738 51.0712 110.146 51.0712 109.388C51.0712 108.631 50.4928 108.039 49.763 108.039H47.2155V110.738ZM55.3999 109.705L58.9251 105.34H60.068V112.225H58.6084V107.846L55.0832 112.225H53.9402V105.34H55.3999V109.705ZM69.1056 108.7C69.8355 109.03 70.2073 109.581 70.2073 110.339C70.2073 111.509 69.202 112.404 67.4945 112.404C66.1037 112.404 65.1673 111.853 64.6854 110.752L65.8971 110.036C66.145 110.724 66.6821 111.068 67.5083 111.068C68.2794 111.068 68.7476 110.724 68.7476 110.187C68.7476 109.705 68.3758 109.402 67.7561 109.402H66.7784V108.094H67.5083C68.1142 108.094 68.4722 107.791 68.4722 107.295C68.4722 106.813 68.0591 106.483 67.4119 106.483C66.7234 106.483 66.2414 106.786 65.9798 107.392L64.768 106.703C65.2775 105.67 66.1588 105.161 67.3843 105.161C68.1555 105.161 68.7614 105.354 69.2158 105.753C69.6702 106.139 69.9043 106.607 69.9043 107.171C69.9043 107.86 69.6427 108.369 69.1056 108.7ZM74.6168 112.404C73.5564 112.404 72.7027 112.06 72.0279 111.385C71.367 110.697 71.0365 109.815 71.0365 108.755C71.0365 107.585 71.2155 106.689 71.5598 106.056C71.904 105.409 72.6201 104.83 73.6804 104.307C73.8594 104.225 74.1073 104.101 74.4515 103.949C74.7958 103.798 75.0436 103.688 75.1676 103.619C75.2915 103.55 75.4567 103.44 75.6495 103.316C76.0351 103.04 76.1866 102.765 76.2967 102.338L77.5085 103.04C77.4534 103.632 76.9577 104.142 76.5584 104.431C76.4482 104.527 76.2554 104.638 75.9938 104.762L75.4017 105.037L74.7132 105.326C73.5014 105.808 73.0194 106.249 72.7991 107.006C73.3499 106.386 74.0935 106.07 75.0436 106.07C75.8561 106.07 76.5584 106.359 77.1505 106.937C77.7564 107.516 78.0593 108.259 78.0593 109.182C78.0593 110.118 77.7426 110.889 77.0954 111.495C76.462 112.101 75.6358 112.404 74.6168 112.404ZM74.603 111.013C75.7597 111.013 76.5721 110.242 76.5721 109.182C76.5721 108.094 75.7735 107.323 74.6168 107.323C74.1073 107.323 73.6391 107.488 73.226 107.819C72.8129 108.135 72.6063 108.576 72.6063 109.113C72.6063 109.664 72.7991 110.118 73.1846 110.476C73.5702 110.834 74.0384 111.013 74.603 111.013ZM85.8861 109.416H80.4056C80.6259 110.462 81.4659 111.041 82.6088 111.041C83.3937 111.041 83.9858 110.752 84.3852 110.187L85.6107 110.903C84.936 111.908 83.9308 112.404 82.595 112.404C81.4796 112.404 80.5708 112.06 79.8823 111.385C79.1938 110.697 78.8495 109.829 78.8495 108.783C78.8495 107.75 79.1938 106.896 79.8685 106.207C80.5433 105.505 81.4246 105.161 82.4849 105.161C83.4901 105.161 84.3163 105.519 84.9635 106.221C85.6107 106.924 85.9412 107.791 85.9412 108.796C85.9412 108.948 85.9274 109.154 85.8861 109.416ZM80.3918 108.204H84.4403C84.2337 107.089 83.4488 106.51 82.4711 106.51C81.3695 106.51 80.5983 107.158 80.3918 108.204ZM91.1468 105.161C92.097 105.161 92.8957 105.519 93.5704 106.221C94.2451 106.924 94.5756 107.777 94.5756 108.783C94.5756 109.802 94.2451 110.655 93.5704 111.358C92.8957 112.06 92.097 112.404 91.1468 112.404C90.1003 112.404 89.3016 112.019 88.737 111.247V114.979H87.2498V105.34H88.737V106.331C89.3016 105.547 90.1003 105.161 91.1468 105.161ZM89.3567 110.366C89.7698 110.779 90.2931 110.986 90.9127 110.986C91.5324 110.986 92.0557 110.779 92.4688 110.366C92.8819 109.939 93.0884 109.416 93.0884 108.783C93.0884 108.149 92.8819 107.626 92.4688 107.213C92.0557 106.786 91.5324 106.579 90.9127 106.579C90.2931 106.579 89.7698 106.786 89.3567 107.213C88.9436 107.626 88.737 108.149 88.737 108.783C88.737 109.416 88.9436 109.939 89.3567 110.366ZM102.575 109.416H97.094C97.3143 110.462 98.1543 111.041 99.2972 111.041C100.082 111.041 100.674 110.752 101.074 110.187L102.299 110.903C101.624 111.908 100.619 112.404 99.2835 112.404C98.1681 112.404 97.2592 112.06 96.5707 111.385C95.8822 110.697 95.5379 109.829 95.5379 108.783C95.5379 107.75 95.8822 106.896 96.5569 106.207C97.2317 105.505 98.113 105.161 99.1733 105.161C100.179 105.161 101.005 105.519 101.652 106.221C102.299 106.924 102.63 107.791 102.63 108.796C102.63 108.948 102.616 109.154 102.575 109.416ZM97.0802 108.204H101.129C100.922 107.089 100.137 106.51 99.1595 106.51C98.0579 106.51 97.2868 107.158 97.0802 108.204ZM103.938 105.34H108.551V106.772H105.425V112.225H103.938V105.34ZM109.679 105.34H114.954V112.225H113.466V106.772H111.167V109.333C111.167 111.523 110.175 112.39 108.413 112.225V110.834C109.253 110.986 109.679 110.518 109.679 109.264V105.34ZM118.146 109.705L121.671 105.34H122.814V112.225H121.355V107.846L117.829 112.225H116.687V105.34H118.146V109.705ZM130.929 108.714L134.069 112.225H132.293L129.47 109.044V112.225H127.982V105.34H129.47V108.383L132.141 105.34H133.959L130.929 108.714ZM137.768 112.404C136.763 112.404 135.895 112.06 135.193 111.358C134.49 110.655 134.132 109.802 134.132 108.783C134.132 107.764 134.49 106.91 135.193 106.207C135.895 105.505 136.763 105.161 137.768 105.161C138.787 105.161 139.641 105.505 140.343 106.207C141.045 106.91 141.403 107.764 141.403 108.783C141.403 109.802 141.045 110.655 140.343 111.358C139.641 112.06 138.787 112.404 137.768 112.404ZM136.239 110.339C136.652 110.752 137.162 110.958 137.768 110.958C138.374 110.958 138.883 110.752 139.296 110.339C139.709 109.925 139.916 109.402 139.916 108.783C139.916 108.163 139.709 107.64 139.296 107.226C138.883 106.813 138.374 106.607 137.768 106.607C137.162 106.607 136.652 106.813 136.239 107.226C135.826 107.64 135.62 108.163 135.62 108.783C135.62 109.402 135.826 109.925 136.239 110.339ZM150.9 110.821V105.34H152.387V112.225H142.748V105.34H144.235V110.821H146.824V105.34H148.311V110.821H150.9ZM153.381 105.34H159.371V106.772H157.127V112.225H155.64V106.772H153.381V105.34ZM161.837 109.705L165.363 105.34H166.505V112.225H165.046V107.846L161.521 112.225H160.378V105.34H161.837V109.705Z" fill="#010101"/>
<path d="M46.1273 127.594V130.273H49.501V130.755H45.6164V124.008H49.4528V124.49H46.1273V127.112H49.2119V127.594H46.1273ZM51.6622 128.249L54.3515 130.755H53.6961L51.1417 128.384V130.755H50.6597V125.936H51.1417V128.124L53.5804 125.936H54.2551L51.6622 128.249ZM57.0466 130.861C56.3429 130.861 55.7357 130.62 55.2441 130.138C54.7525 129.647 54.5115 129.049 54.5115 128.346C54.5115 127.642 54.7525 127.044 55.2441 126.562C55.7357 126.071 56.3429 125.83 57.0466 125.83C57.7502 125.83 58.3382 126.071 58.8298 126.562C59.3214 127.044 59.5721 127.642 59.5721 128.346C59.5721 129.049 59.3214 129.647 58.8298 130.138C58.3382 130.62 57.7502 130.861 57.0466 130.861ZM55.5911 129.801C55.9863 130.196 56.4779 130.399 57.0466 130.399C57.6153 130.399 58.0973 130.196 58.4925 129.801C58.8877 129.406 59.0805 128.914 59.0805 128.346C59.0805 127.777 58.8877 127.285 58.4925 126.89C58.0973 126.495 57.6153 126.292 57.0466 126.292C56.4779 126.292 55.9863 126.495 55.5911 126.89C55.1959 127.285 55.0031 127.777 55.0031 128.346C55.0031 128.914 55.1959 129.406 55.5911 129.801ZM64.2213 128.114V125.936H64.7129V130.755H64.2213V128.577H61.2139V130.755H60.7319V125.936H61.2139V128.114H64.2213ZM68.4084 130.861C67.7048 130.861 67.0975 130.62 66.6059 130.138C66.1143 129.647 65.8733 129.049 65.8733 128.346C65.8733 127.642 66.1143 127.044 66.6059 126.562C67.0975 126.071 67.7048 125.83 68.4084 125.83C69.1121 125.83 69.7001 126.071 70.1917 126.562C70.6833 127.044 70.9339 127.642 70.9339 128.346C70.9339 129.049 70.6833 129.647 70.1917 130.138C69.7001 130.62 69.1121 130.861 68.4084 130.861ZM66.9529 129.801C67.3481 130.196 67.8397 130.399 68.4084 130.399C68.9771 130.399 69.4591 130.196 69.8543 129.801C70.2495 129.406 70.4423 128.914 70.4423 128.346C70.4423 127.777 70.2495 127.285 69.8543 126.89C69.4591 126.495 68.9771 126.292 68.4084 126.292C67.8397 126.292 67.3481 126.495 66.9529 126.89C66.5577 127.285 66.3649 127.777 66.3649 128.346C66.3649 128.914 66.5577 129.406 66.9529 129.801ZM76.1712 125.936H76.7495V130.755H76.2579V126.668L74.4554 129.512H74.3879L72.5757 126.649V130.755H72.0938V125.936H72.6625L74.4168 128.702L76.1712 125.936ZM78.0866 124.384C78.0674 123.902 78.8771 123.902 78.8578 124.384C78.8771 124.885 78.0674 124.885 78.0866 124.384ZM78.7132 130.755H78.2312V125.936H78.7132V130.755ZM81.6252 125.936H83.5338V130.755H83.0518V128.876H82.0108L80.4974 130.755H79.8709L81.4131 128.866C80.6324 128.779 80.0347 128.191 80.0347 127.411C80.0347 126.977 80.189 126.63 80.4974 126.35C80.8059 126.071 81.1818 125.936 81.6252 125.936ZM81.6252 128.413H83.0518V126.408H81.6252C81.0083 126.408 80.5263 126.823 80.5263 127.411C80.5263 128.018 80.9987 128.413 81.6252 128.413ZM91.5401 125.936V130.283H92.2149V132.047H91.7233V130.755H87.5591V132.047H87.0675V130.283H87.6266C87.9833 129.801 88.1568 129.155 88.1568 128.346V125.936H91.5401ZM88.2242 130.283H91.0485V126.408H88.6387V128.346C88.6387 129.136 88.5038 129.782 88.2242 130.283ZM93.7942 125.936H97.1872V130.755H96.7052V126.408H94.2761V128.731C94.2761 130.302 93.6592 130.832 92.6568 130.755V130.302C93.4279 130.37 93.7942 129.936 93.7942 128.731V125.936ZM100.094 125.936H102.003V130.755H101.521V128.876H100.48L98.9663 130.755H98.3398L99.882 128.866C99.1012 128.779 98.5036 128.191 98.5036 127.411C98.5036 126.977 98.6578 126.63 98.9663 126.35C99.2748 126.071 99.6507 125.936 100.094 125.936ZM100.094 128.413H101.521V126.408H100.094C99.4772 126.408 98.9952 126.823 98.9952 127.411C98.9952 128.018 99.4675 128.413 100.094 128.413ZM109.026 128.268C109.595 128.452 109.874 128.837 109.874 129.425C109.874 130.196 109.354 130.755 108.39 130.755H106.057V125.936H108.206C109.122 125.936 109.643 126.466 109.643 127.199C109.643 127.709 109.44 128.066 109.026 128.268ZM108.206 126.408H106.539V128.076H108.206C108.823 128.076 109.151 127.767 109.151 127.227C109.151 126.717 108.814 126.408 108.206 126.408ZM106.539 130.283H108.39C109.035 130.283 109.392 129.955 109.392 129.406C109.392 128.866 109.016 128.548 108.39 128.548H106.539V130.283ZM115.184 127.025V125.936H115.675V130.755H115.184V129.666C114.769 130.408 114.027 130.861 113.111 130.861C112.427 130.861 111.839 130.62 111.347 130.138C110.856 129.647 110.615 129.049 110.615 128.346C110.615 127.642 110.856 127.044 111.347 126.562C111.839 126.071 112.427 125.83 113.111 125.83C114.027 125.83 114.769 126.283 115.184 127.025ZM111.694 129.801C112.089 130.196 112.581 130.399 113.15 130.399C113.719 130.399 114.2 130.196 114.596 129.801C114.991 129.406 115.184 128.914 115.184 128.346C115.184 127.777 114.991 127.285 114.596 126.89C114.2 126.495 113.719 126.292 113.15 126.292C112.581 126.292 112.089 126.495 111.694 126.89C111.299 127.285 111.106 127.777 111.106 128.346C111.106 128.914 111.299 129.406 111.694 129.801ZM119.363 130.861C118.64 130.861 118.032 130.62 117.55 130.138C117.068 129.657 116.827 129.059 116.827 128.346C116.827 127.632 117.068 127.035 117.55 126.553C118.032 126.071 118.64 125.83 119.363 125.83C120.298 125.83 121.117 126.302 121.464 127.064L121.069 127.295C120.789 126.678 120.134 126.292 119.363 126.292C118.784 126.292 118.302 126.495 117.907 126.89C117.512 127.285 117.319 127.767 117.319 128.346C117.319 128.924 117.512 129.416 117.907 129.811C118.302 130.206 118.784 130.399 119.363 130.399C120.134 130.399 120.78 130.013 121.098 129.396L121.502 129.637C121.117 130.379 120.298 130.861 119.363 130.861Z" fill="#626161"/>
<path d="M175.576 141.068V138.158H187.35V140.804L180.841 156.68H177.64L184.043 141.068H175.576ZM200.797 154.404C199.527 156.151 197.754 157.024 195.452 157.024C193.15 157.024 191.377 156.151 190.08 154.404C188.81 152.658 188.175 150.329 188.175 147.419C188.175 144.508 188.81 142.18 190.08 140.433C191.377 138.687 193.15 137.814 195.452 137.814C197.754 137.814 199.527 138.687 200.797 140.433C202.093 142.18 202.728 144.508 202.728 147.419C202.728 150.329 202.093 152.658 200.797 154.404ZM195.452 154.06C198.204 154.06 199.685 151.679 199.685 147.419C199.685 143.159 198.204 140.777 195.452 140.777C192.726 140.777 191.218 143.159 191.218 147.419C191.218 151.679 192.726 154.06 195.452 154.06ZM213.242 142.047C213.242 143.238 212.819 144.244 211.999 145.064C211.178 145.884 210.173 146.281 208.929 146.281C207.686 146.281 206.654 145.884 205.833 145.064C205.013 144.244 204.59 143.238 204.59 142.047C204.59 140.857 205.013 139.878 205.833 139.057C206.654 138.237 207.686 137.814 208.929 137.814C210.173 137.814 211.178 138.211 211.999 139.031C212.819 139.851 213.242 140.857 213.242 142.047ZM208.903 143.953C210.041 143.953 210.808 143.106 210.808 142.047C210.808 140.963 210.041 140.116 208.903 140.116C207.818 140.116 207.024 140.963 207.024 142.047C207.024 143.106 207.818 143.953 208.903 143.953ZM207.58 154.801L206.151 153.955L218.349 140.38L219.778 141.201L207.58 154.801ZM217.397 156.997C216.153 156.997 215.121 156.601 214.301 155.78C213.48 154.96 213.057 153.955 213.057 152.764C213.057 151.573 213.48 150.594 214.301 149.774C215.121 148.954 216.153 148.53 217.397 148.53C218.614 148.53 219.646 148.954 220.466 149.774C221.286 150.594 221.71 151.573 221.71 152.764C221.71 153.955 221.286 154.96 220.466 155.78C219.646 156.601 218.614 156.997 217.397 156.997ZM217.37 154.669C218.508 154.669 219.275 153.822 219.275 152.764C219.275 151.679 218.508 150.832 217.37 150.832C216.285 150.832 215.491 151.679 215.491 152.764C215.491 153.822 216.285 154.669 217.37 154.669Z" fill="white"/>
<defs>
<radialGradient id="paint0_radial_346_298" cx="0" cy="0" r="1" gradientUnits="userSpaceOnUse" gradientTransform="translate(259.732 385.346) rotate(180) scale(294.838 294.838)">
<stop stop-color="#F8AC22"/>
<stop offset="0.3921" stop-color="#F8AC22"/>
<stop offset="0.4582" stop-color="#E7A021" stop-opacity="0.8913"/>
<stop offset="0.5897" stop-color="#BA821D" stop-opacity="0.675"/>
<stop offset="0.7744" stop-color="#715117" stop-opacity="0.3711"/>
<stop offset="1" stop-color="#0F0F0F" stop-opacity="0"/>
</radialGradient>
</defs>
</svg>
