<svg width="76" height="77" viewBox="0 0 76 77" fill="none" xmlns="http://www.w3.org/2000/svg">
<path d="M14.5286 0.410645H61.7608C69.6098 0.410645 75.9442 6.74497 75.9442 14.594V61.8262C75.9442 69.6752 69.6098 76.0096 61.7608 76.0096H14.5286C6.67954 76.0096 0.345215 69.6752 0.345215 61.8262V14.594C0.482918 6.74497 6.81724 0.410645 14.5286 0.410645Z" fill="#070507"/>
<path d="M29.263 56.318C28.7122 55.9049 28.0237 55.4918 27.4728 55.0787C24.0303 52.6 21.6893 49.4328 20.0369 45.5771C18.2468 41.7215 17.4205 37.5904 17.4205 33.4593C17.4205 33.3216 17.4205 33.1839 17.4205 32.9084C30.5023 32.9084 43.4464 32.9084 56.5282 32.9084C56.5282 33.7347 56.5282 34.6986 56.3905 35.5248C56.3905 35.9379 56.3905 36.0757 56.8036 36.2134C59.42 37.1773 61.3478 38.9674 61.7609 41.8591C62.174 44.2001 61.3478 46.2656 59.6954 47.7804C57.3544 50.1213 54.6004 50.8099 51.4332 50.3967C51.1578 50.3967 51.0201 50.3968 50.8824 50.6722C49.2299 52.8754 47.1644 54.6655 44.8234 56.0425C44.8234 56.0425 44.6858 56.0426 44.5481 56.1803C45.3743 56.318 45.9251 56.8688 46.889 56.8688C50.1939 57.0065 53.4987 57.1442 56.8036 57.695C57.4921 57.8327 58.1806 57.9704 58.8692 58.2458C59.0069 58.2458 59.1446 58.5212 59.2823 58.6589C59.1446 58.7966 59.0069 58.9343 58.8692 59.072C57.9052 59.3474 56.8036 59.6228 55.8397 59.7605C48.6791 60.5868 41.5186 60.7245 34.2203 60.5868C29.9515 60.5868 25.8204 60.3114 21.5516 60.036C19.7615 59.8983 17.9714 59.6229 16.0435 59.3474C15.7681 59.3474 15.355 59.2097 15.0796 59.072C14.8042 58.9343 14.6665 58.659 15.0796 58.5213C15.4927 58.3836 15.9058 58.1081 16.4566 58.1081C18.2467 57.8327 20.0369 57.5573 21.8271 57.4196C23.7549 57.2819 25.8204 57.1442 27.7483 57.0065C27.886 57.0065 28.0237 57.0065 28.0237 57.0065C28.2991 56.7311 28.7122 56.4557 29.263 56.318ZM52.8102 47.6427C52.8102 47.6427 52.8102 47.7804 52.9479 47.7804C53.6364 47.6427 54.3249 47.505 55.0135 47.3673C56.9413 46.6788 58.3184 45.0263 58.3184 43.2362C58.4561 41.5837 57.2167 39.7936 55.8397 39.3805C55.1512 42.1346 54.1873 45.0263 52.8102 47.6427Z" fill="#F8AC22"/>
<path d="M41.2437 18.8626C41.2437 19.9643 40.8306 21.3414 40.2798 22.7184C39.8667 23.6823 39.4535 24.6462 39.1781 25.7478C38.9027 26.9871 39.1782 28.0887 39.4536 29.1904C39.5913 29.4658 39.5913 29.7412 39.729 30.1543C39.729 30.5674 39.5913 30.7051 39.3158 30.5674C38.9027 30.4297 38.4896 30.292 38.2142 30.0166C37.1126 28.915 36.5618 27.5379 36.4241 26.0232C36.2864 24.5085 36.8372 22.9937 37.5257 21.6167C38.6273 19.5512 39.0404 17.3479 38.765 15.007C38.765 14.7316 38.765 14.4562 38.765 14.1808C38.765 13.7677 39.0404 13.63 39.4536 13.9054C39.729 14.1808 40.1421 14.4562 40.2798 14.8693C40.9683 15.8332 41.2437 17.0725 41.2437 18.8626Z" fill="#F8AC22"/>
<path d="M34.7711 14.8694C34.6334 14.1809 34.4957 13.4923 34.358 12.6661C34.358 12.3907 34.2203 12.1153 34.0826 11.8399C34.0826 11.5645 34.0826 11.4268 34.0826 11.1514C34.358 11.1514 34.6334 11.1513 34.9088 11.289C35.5974 11.5644 36.1481 12.1153 36.5613 12.8038C37.6629 14.7317 37.6629 16.6595 36.9744 18.725C36.8367 19.2758 36.5613 19.8267 36.2859 20.3775C35.1842 22.443 34.9088 24.5085 35.0465 26.7118C35.0465 26.9872 35.0465 27.2626 35.0465 27.6757C35.0465 28.0888 34.7711 28.0889 34.4957 27.9512C34.2203 27.8134 33.9449 27.538 33.8072 27.2626C32.7056 25.7479 32.4302 24.0955 32.5679 22.443C32.7056 21.066 33.2564 19.6889 33.8072 18.4496C34.2203 17.2103 34.6334 16.1087 34.7711 14.8694Z" fill="#E98500"/>
</svg>
