<svg width="55" height="54" viewBox="0 0 55 54" fill="none" xmlns="http://www.w3.org/2000/svg">
<path d="M0.599609 24.9C1.09961 22.7 1.39961 20.5 2.09961 18.3C5.49961 7.79996 16.2996 -1.10005 30.3996 0.199949C41.8996 1.29995 51.9996 10.7 53.8996 22.6C56.1996 37.5 46.1996 51.2999 31.2996 53.5C30.6996 53.5999 30.0996 53.7 29.4996 53.8C28.1996 53.8 26.7996 53.8 25.4996 53.8C25.1996 53.7 24.8996 53.6 24.6996 53.6C13.2996 52.1 5.6996 45.7999 1.9996 35C1.2996 33.0999 1.0996 30.9999 0.6996 28.8999C0.5996 27.5999 0.599609 26.2 0.599609 24.9ZM27.5996 2.89995C14.7996 2.69995 3.6996 13.3999 3.3996 26.1999C3.0996 39.5 13.5996 50.7999 26.5996 51C40.1996 51.2999 51.1996 40.7 51.3996 27.1C51.6996 14.1 40.8996 3.09995 27.5996 2.89995Z" fill="#58A3DA"/>
<path d="M21.8002 34.8999C23.9002 32.7999 25.9001 30.7999 27.9001 28.7999C31.9002 24.7999 35.9002 20.6999 40.0002 16.6999C40.3002 16.3999 40.5002 15.9999 40.8002 15.9999C41.4002 15.8999 42.2002 15.8999 42.5002 16.1999C42.8002 16.4999 42.8002 17.2999 42.7002 17.8999C42.7002 18.1999 42.3002 18.3999 42.1002 18.5999C35.9002 24.7999 29.6001 31.0999 23.4001 37.2999C22.1001 38.5999 21.7001 38.5999 20.4001 37.2999C17.9001 34.7999 15.4002 32.2999 12.8002 29.7999C12.1002 29.0999 11.6001 28.2999 12.4001 27.3999C13.3001 26.5999 14.1002 27.0999 14.8002 27.7999C17.1002 30.0999 19.4002 32.4999 21.8002 34.8999Z" fill="#58A3DA"/>
</svg>
